<svg width="40" height="40" viewBox="0 0 40 40" fill="none" xmlns="http://www.w3.org/2000/svg">
<path d="M16.7188 29.375L12.625 39.0625L9.65625 36.1562L5.5 36.0313L9.96875 25.5L10.0625 25.7188C10.5625 26.7188 11.5 27.4375 12.625 27.5938L14.6875 27.9063L16.375 29.1563C16.4688 29.2188 16.5938 29.3125 16.7188 29.375ZM34.5313 36.0313L30.375 36.1562L27.4062 39.0625L23.2188 29.1875L23.5625 29.25C24.6875 29.4062 25.7813 29.0313 26.5625 28.2188L28 26.6875L29.9688 26C30.0625 25.9687 30.1562 25.9375 30.2187 25.9063L34.5313 36.0313Z" fill="#1E4B8A"/>
<path d="M33.1569 10.9059L31.5631 8.99962L31.0006 6.56212C30.8756 5.99962 30.4694 5.53087 29.9382 5.31212L27.6256 4.37462L26.0319 2.46837C25.6569 2.03087 25.0944 1.78087 24.5006 1.84337L22.0006 2.06212L19.6881 1.12462C19.1569 0.905872 18.5319 0.968372 18.0631 1.28087L15.9694 2.65587L13.4694 2.87462C12.8756 2.93712 12.3756 3.24962 12.0944 3.78087L10.8756 5.96837L8.75065 7.28087C8.25065 7.59337 7.9694 8.12462 7.93815 8.71837L7.87565 11.2184L6.6569 13.4059C6.37565 13.9059 6.3444 14.5309 6.62565 15.0621L7.7194 17.3121L7.6569 19.8121C7.62565 20.4059 7.9069 20.9371 8.37565 21.2809L10.4069 22.7496L11.5006 24.9996C11.7506 25.5309 12.2506 25.8746 12.8444 25.9684L15.3131 26.3434L17.3444 27.8121C17.8131 28.1559 18.4381 28.2496 18.9694 28.0621L21.3444 27.2496L23.8131 27.6246C24.3756 27.7184 24.9694 27.4996 25.3756 27.0934L27.0944 25.2809L29.4694 24.4684C30.0319 24.2809 30.4381 23.8121 30.5944 23.2809L31.2506 20.8746L32.9694 19.0621C33.3756 18.6246 33.5319 18.0309 33.4069 17.4684L32.8756 15.0309L33.5319 12.6246C33.6569 11.9684 33.5319 11.3746 33.1569 10.9059ZM20.0006 22.6559C15.5319 22.6559 11.8756 19.0309 11.8756 14.5309C11.8756 10.0621 15.5006 6.40587 20.0006 6.40587C24.4694 6.40587 28.1256 10.0309 28.1256 14.5309C28.1256 19.0309 24.4694 22.6559 20.0006 22.6559Z" fill="#1E4B8A"/>
</svg>
