<svg width="40" height="40" viewBox="0 0 40 40" fill="none" xmlns="http://www.w3.org/2000/svg">
<path d="M12.5007 26.6671H5.83398C5.37408 26.6661 5.00157 26.2936 5.00065 25.8337V14.167C5.00157 13.7072 5.37408 13.3346 5.83398 13.3337H10.834C11.2942 13.3337 11.6673 12.9606 11.6673 12.5004C11.6673 12.0402 11.2942 11.667 10.834 11.667H5.83398C4.45388 11.6686 3.33551 12.7869 3.33398 14.167V25.8337C3.33551 27.2138 4.45388 28.3322 5.83398 28.3337H12.5007C12.9609 28.3337 13.334 27.9606 13.334 27.5004C13.334 27.0402 12.9609 26.6671 12.5007 26.6671ZM22.4444 19.722C22.4274 19.6745 22.4027 19.6338 22.3778 19.5907C22.3495 19.5415 22.3221 19.4946 22.2839 19.4516C22.2475 19.4106 22.2046 19.3797 22.1609 19.3466C22.1297 19.3229 22.1079 19.2908 22.0726 19.2712C22.0583 19.2633 22.0425 19.2641 22.028 19.2571C21.9815 19.2344 21.9312 19.2239 21.8803 19.2101C21.8221 19.1945 21.7661 19.1777 21.7071 19.1751C21.6932 19.1744 21.6815 19.167 21.6673 19.167H14.7512L18.2298 12.9057C18.4536 12.5029 18.3087 11.995 17.9059 11.7712C17.5032 11.5474 16.9953 11.6924 16.7715 12.0951L12.6048 19.5951C12.597 19.6092 12.5976 19.6251 12.5907 19.6396C12.5678 19.6866 12.5572 19.7374 12.5434 19.789C12.5282 19.8463 12.5115 19.9013 12.5089 19.9594C12.5082 19.9737 12.5007 19.9858 12.5007 20.0004C12.5007 20.0367 12.5168 20.0677 12.5213 20.1028C12.5289 20.1626 12.5364 20.2202 12.5565 20.277C12.574 20.3261 12.5994 20.3681 12.6254 20.4126C12.653 20.4606 12.6798 20.5065 12.7171 20.5486C12.7537 20.5898 12.7966 20.621 12.8407 20.6543C12.8718 20.678 12.8935 20.7099 12.9287 20.7295C12.9404 20.736 12.9549 20.7335 12.9668 20.7393C13.0788 20.7953 13.2003 20.8337 13.334 20.8337H20.2501L16.7715 27.0951C16.5484 27.4979 16.6933 28.0052 17.0954 28.2296C17.2196 28.2977 17.3589 28.3335 17.5007 28.3337C17.8033 28.3334 18.0821 28.1697 18.2298 27.9057L22.3965 20.4057C22.4044 20.3914 22.4036 20.3755 22.4106 20.3611C22.4333 20.3146 22.4438 20.2643 22.4576 20.2134C22.4732 20.1552 22.49 20.0992 22.4926 20.0402C22.4933 20.0262 22.5007 20.0145 22.5007 20.0004C22.5007 19.9654 22.4849 19.9356 22.4807 19.9017C22.4731 19.8399 22.4654 19.7806 22.4444 19.722ZM29.1673 11.667H22.5007C22.0404 11.667 21.6673 12.0402 21.6673 12.5004C21.6673 12.9606 22.0404 13.3337 22.5007 13.3337H29.1673C29.6272 13.3346 29.9997 13.7072 30.0007 14.167V25.8337C29.9997 26.2936 29.6272 26.6661 29.1673 26.6671H24.1673C23.7071 26.6671 23.334 27.0402 23.334 27.5004C23.334 27.9606 23.7071 28.3337 24.1673 28.3337H29.1673C30.5474 28.3322 31.6658 27.2138 31.6673 25.8337V14.167C31.6658 12.7869 30.5474 11.6686 29.1673 11.667ZM35.834 16.667C35.3738 16.667 35.0007 17.0402 35.0007 17.5004V22.5013C35.001 22.9613 35.374 23.334 35.834 23.3337C36.2939 23.3334 36.6676 22.9604 36.6673 22.5004V17.5004C36.6673 17.0402 36.2942 16.667 35.834 16.667Z" fill="#1E4B8A"/>
</svg>
