<svg width="128" height="128" viewBox="0 0 128 128" fill="none" xmlns="http://www.w3.org/2000/svg">
<g clip-path="url(#clip0_614_66)">
<path d="M64.0004 119C75.4004 119.002 86.3759 114.676 94.7093 106.896C103.043 99.1172 108.112 88.4648 108.894 77.0916C109.676 65.7184 106.112 54.4724 98.922 45.6258C91.7318 36.7793 81.4517 30.9917 70.1588 29.4326C70.2724 30.6155 70.4134 32.0171 70.5753 33.5345C80.744 35.1861 89.9183 40.6051 96.2732 48.7134C102.628 56.8218 105.698 67.0252 104.872 77.2939C104.045 87.5627 99.384 97.1441 91.8146 104.132C84.2452 111.12 74.3226 115.003 64.0206 115.008C53.7187 115.012 43.7925 111.139 36.2168 104.158C28.641 97.1763 23.9708 87.5991 23.1353 77.3311C22.2998 67.0632 25.3603 56.8569 31.7078 48.7428C38.0553 40.6287 47.2247 35.2014 57.3918 33.5405C57.5609 32.0202 57.7094 30.6167 57.8297 29.4341C46.5383 30.9961 36.2605 36.7855 29.0727 45.6328C21.8849 54.48 18.323 65.7256 19.1065 77.0977C19.89 88.4698 24.9604 99.1206 33.2936 106.899C41.6267 114.676 52.6014 119.002 64.0004 119Z" fill="#1E4B8A"/>
<path d="M64 97C58.7946 97.0006 53.743 95.2351 49.6711 91.9924C45.5991 88.7497 42.7477 84.2214 41.583 79.148C40.4184 74.0746 41.0093 68.7561 43.2593 64.0621C45.5093 59.368 49.2851 55.5762 53.9696 53.3064C54.4754 51.7337 54.9114 50.3128 55.0752 49.6196C55.1584 49.2671 55.2429 48.8645 55.3279 48.437C49.2667 50.4927 44.1328 54.6348 40.8421 60.1243C37.5514 65.6139 36.3178 72.0939 37.3613 78.4086C38.4048 84.7233 41.6576 90.4619 46.5395 94.6009C51.4214 98.7399 57.6149 101.01 64.0152 101.006C70.4155 101.003 76.6065 98.7257 81.4837 94.5812C86.3609 90.4367 89.6072 84.6944 90.6437 78.3785C91.6801 72.0627 90.4391 65.584 87.1422 60.0982C83.8453 54.6124 78.7068 50.4761 72.6432 48.4272C72.7255 48.8099 72.8076 49.1658 72.8892 49.4761C73.0912 50.246 73.5558 51.742 74.0618 53.3224C78.7402 55.5979 82.5088 59.3924 84.7522 64.0863C86.9955 68.7801 87.5811 74.0959 86.4132 79.1655C85.2454 84.2351 82.3931 88.759 78.3222 91.9982C74.2513 95.2375 69.2024 97.0007 64 97ZM64 19C64.5304 19 65.0391 18.7893 65.4142 18.4142C65.7893 18.0391 66 17.5304 66 17V11C66 10.4696 65.7893 9.96086 65.4142 9.58579C65.0391 9.21071 64.5304 9 64 9C63.4696 9 62.9609 9.21071 62.5858 9.58579C62.2107 9.96086 62 10.4696 62 11V17C62 17.5304 62.2107 18.0391 62.5858 18.4142C62.9609 18.7893 63.4696 19 64 19ZM34.2681 25.5024C34.3993 25.73 34.5741 25.9295 34.7825 26.0895C34.9909 26.2496 35.2287 26.3669 35.4825 26.435C35.7362 26.5031 36.0009 26.5205 36.2614 26.4862C36.5219 26.4519 36.773 26.3667 37.0005 26.2353C37.2281 26.1039 37.4275 25.929 37.5874 25.7206C37.7473 25.5121 37.8645 25.2742 37.9325 25.0204C38.0004 24.7666 38.0176 24.5019 37.9832 24.2415C37.9488 23.981 37.8634 23.7299 37.7319 23.5024L34.7319 18.3066C34.6007 18.0791 34.4259 17.8795 34.2175 17.7195C34.0092 17.5595 33.7713 17.4421 33.5175 17.3741C33.2638 17.306 32.9991 17.2886 32.7386 17.3229C32.4782 17.3572 32.227 17.4424 31.9995 17.5738C31.7719 17.7051 31.5725 17.88 31.4126 18.0885C31.2527 18.297 31.1355 18.5349 31.0676 18.7887C30.9996 19.0425 30.9824 19.3071 31.0168 19.5676C31.0512 19.8281 31.1366 20.0792 31.2681 20.3066L34.2681 25.5024ZM9.30664 43.7319L14.5024 46.7319C14.9618 46.9968 15.5075 47.0684 16.0196 46.9311C16.5317 46.7937 16.9683 46.4586 17.2334 45.9995C17.4986 45.5403 17.5705 44.9946 17.4334 44.4824C17.2963 43.9702 16.9615 43.5334 16.5024 43.2681L11.3066 40.2681C11.0792 40.1366 10.8281 40.0512 10.5676 40.0168C10.3071 39.9824 10.0425 39.9996 9.78867 40.0675C9.53488 40.1355 9.29696 40.2527 9.0885 40.4126C8.88005 40.5725 8.70514 40.7719 8.57377 40.9995C8.4424 41.227 8.35715 41.4781 8.32289 41.7386C8.28862 41.9991 8.30602 42.2638 8.37407 42.5175C8.44213 42.7713 8.55952 43.0091 8.71954 43.2175C8.87955 43.4259 9.07905 43.6007 9.30664 43.7319ZM2 75H8C8.53043 75 9.03914 74.7893 9.41421 74.4142C9.78929 74.0391 10 73.5304 10 73C10 72.4696 9.78929 71.9609 9.41421 71.5858C9.03914 71.2107 8.53043 71 8 71H2C1.46957 71 0.960859 71.2107 0.585786 71.5858C0.210714 71.9609 0 72.4696 0 73C0 73.5304 0.210714 74.0391 0.585786 74.4142C0.960859 74.7893 1.46957 75 2 75ZM14.5024 99.2676L9.30664 102.268C8.84746 102.533 8.51246 102.97 8.37528 103.482C8.2381 103.994 8.30998 104.54 8.57511 104.999C8.84023 105.459 9.27691 105.794 9.78913 105.931C10.3014 106.069 10.8472 105.997 11.3066 105.732L16.5024 102.732C16.9616 102.467 17.2966 102.03 17.4338 101.518C17.571 101.006 17.4991 100.46 17.234 100.001C16.9688 99.5412 16.5322 99.206 16.0199 99.0685C15.5077 98.9311 14.9619 99.0027 14.5024 99.2676ZM111.498 102.732L116.693 105.732C117.153 105.997 117.699 106.069 118.211 105.931C118.723 105.794 119.16 105.459 119.425 104.999C119.69 104.54 119.762 103.994 119.625 103.482C119.488 102.97 119.153 102.533 118.693 102.268L113.498 99.2676C113.038 99.0027 112.492 98.9311 111.98 99.0685C111.468 99.206 111.031 99.5412 110.766 100.001C110.501 100.46 110.429 101.006 110.566 101.518C110.703 102.03 111.038 102.467 111.498 102.732ZM126 71H120C119.47 71 118.961 71.2107 118.586 71.5858C118.211 71.9609 118 72.4696 118 73C118 73.5304 118.211 74.0391 118.586 74.4142C118.961 74.7893 119.47 75 120 75H126C126.53 75 127.039 74.7893 127.414 74.4142C127.789 74.0391 128 73.5304 128 73C128 72.4696 127.789 71.9609 127.414 71.5858C127.039 71.2107 126.53 71 126 71ZM112.5 47.0005C112.85 47.0005 113.194 46.9079 113.498 46.7319L118.693 43.7319C118.921 43.6007 119.12 43.4259 119.28 43.2175C119.44 43.0092 119.558 42.7713 119.626 42.5175C119.694 42.2638 119.711 41.9991 119.677 41.7386C119.643 41.4782 119.558 41.227 119.426 40.9995C119.295 40.7719 119.12 40.5725 118.911 40.4126C118.703 40.2527 118.465 40.1355 118.211 40.0676C117.957 39.9996 117.693 39.9824 117.432 40.0168C117.172 40.0512 116.921 40.1366 116.693 40.2681L111.498 43.2681C111.116 43.4884 110.818 43.8284 110.65 44.2353C110.481 44.6423 110.452 45.0934 110.566 45.5188C110.68 45.9442 110.932 46.3199 111.281 46.5878C111.631 46.8558 112.059 47.0008 112.5 47.0005ZM91 26.2344C91.2274 26.3659 91.4785 26.4513 91.7389 26.4857C91.9993 26.5201 92.264 26.5028 92.5177 26.4349C92.7715 26.3669 93.0093 26.2495 93.2177 26.0895C93.426 25.9295 93.6008 25.73 93.7319 25.5025L96.7319 20.3067C96.8634 20.0792 96.9488 19.8281 96.9832 19.5676C97.0176 19.3072 97.0004 19.0425 96.9324 18.7887C96.8645 18.5349 96.7473 18.297 96.5874 18.0885C96.4275 17.8801 96.2281 17.7051 96.0005 17.5738C95.773 17.4424 95.5218 17.3572 95.2614 17.3229C95.0009 17.2886 94.7362 17.306 94.4825 17.3741C94.2287 17.4421 93.9908 17.5595 93.7825 17.7195C93.5741 17.8796 93.3993 18.0791 93.2681 18.3067L90.2681 23.5025C90.0028 23.9618 89.931 24.5077 90.0682 25.02C90.2055 25.5323 90.5407 25.9692 91 26.2344Z" fill="#1E4B8A"/>
<path d="M56.1659 60.9976L62.1659 74.7979C62.3213 75.1551 62.5776 75.4592 62.9034 75.6727C63.2292 75.8863 63.6103 76.0001 63.9999 76.0001C64.3895 76.0001 64.7705 75.8863 65.0963 75.6727C65.4222 75.4592 65.6785 75.1551 65.8339 74.7979L71.8339 60.9976C72.031 60.5445 72.0533 60.0345 71.8964 59.5659C71.8734 59.4971 69.5917 52.6685 69.0204 50.4922C67.4955 44.687 66.0067 27.9917 65.9921 27.8237C65.9481 27.3269 65.72 26.8643 65.3526 26.5269C64.9852 26.1895 64.505 26.0016 64.0062 26C63.5073 25.9984 63.0259 26.1833 62.6564 26.5183C62.2868 26.8534 62.0558 27.3144 62.0087 27.811C61.9931 27.9756 60.4291 44.3506 58.9681 50.5396C58.4584 52.6968 56.1317 59.4824 56.1083 59.5508C55.9461 60.0233 55.9667 60.5394 56.1659 60.9976ZM62.8607 51.459C63.2382 49.8609 63.6166 47.67 63.9735 45.2671C64.3432 47.7305 64.7425 49.9527 65.1513 51.5083C65.6459 53.3931 67.2435 58.2471 67.8603 60.105L63.9999 68.9844L60.1425 60.1128C60.7763 58.2446 62.4071 53.3789 62.8607 51.459Z" fill="#1E4B8A"/>
</g>
<defs>
<clipPath id="clip0_614_66">
<rect width="128" height="128" fill="white"/>
</clipPath>
</defs>
</svg>
