<svg width="40" height="40" viewBox="0 0 40 40" fill="none" xmlns="http://www.w3.org/2000/svg">
<path d="M11.6673 6.66655C11.8884 6.66675 12.1004 6.57886 12.2564 6.4223L15.5897 3.08897C15.9016 2.76609 15.9016 2.25411 15.5897 1.93113C15.27 1.60012 14.7425 1.59096 14.4115 1.91069L11.0781 5.24402C10.9219 5.40027 10.8341 5.61216 10.8341 5.83311C10.834 6.29332 11.2071 6.66644 11.6673 6.66655ZM25.0007 6.66655C25.2217 6.66675 25.4337 6.57886 25.5897 6.4223L28.9231 3.08897C29.2351 2.76609 29.2351 2.25411 28.9231 1.93113C28.6034 1.60012 28.0758 1.59096 27.7448 1.91069L24.4115 5.24402C24.2552 5.40027 24.1674 5.61216 24.1674 5.83311C24.1673 6.29332 24.5404 6.66644 25.0007 6.66655ZM18.334 6.66655C18.555 6.66675 18.767 6.57886 18.9231 6.4223L22.2564 3.08897C22.5683 2.76609 22.5683 2.25411 22.2564 1.93113C21.9367 1.60012 21.4091 1.59096 21.0781 1.91069L17.7448 5.24402C17.5885 5.40027 17.5008 5.61216 17.5008 5.83311C17.5007 6.29332 17.8738 6.66644 18.334 6.66655ZM27.7497 26.0823C27.7413 26.0903 27.7332 26.0984 27.7253 26.1066C27.4165 26.4289 27.4274 26.9405 27.7497 27.2493C27.8204 27.3337 27.9126 27.3972 28.0166 27.4332C28.1154 27.4809 28.2243 27.5037 28.334 27.4999C28.5473 27.4964 28.7513 27.4113 28.9037 27.262C29.2331 26.9399 29.2389 26.4116 28.9167 26.0823C28.5918 25.7666 28.0746 25.7666 27.7497 26.0823ZM11.083 26.0822C10.922 26.2394 10.8321 26.4555 10.834 26.6805C10.8378 27.1368 11.2109 27.5037 11.6673 27.4999C11.7765 27.5037 11.8848 27.4809 11.9831 27.4331C12.0872 27.3975 12.1796 27.3339 12.25 27.2492C12.4153 27.1014 12.507 26.8882 12.5007 26.6665C12.5035 26.4451 12.4124 26.2328 12.25 26.0822C11.9251 25.7665 11.4079 25.7665 11.083 26.0822ZM33.1229 18.3965L30.7184 11.1815C30.1517 9.47966 28.5587 8.33199 26.765 8.33321H13.2363C11.4426 8.33199 9.84959 9.47966 9.28288 11.1815L6.8784 18.3965C4.87573 18.7004 3.33592 20.4127 3.33398 22.4999V30.8332C3.33582 32.8481 4.76648 34.5278 6.66732 34.9151V37.5008C6.66762 37.9608 7.04065 38.3335 7.50065 38.3332C7.96055 38.3329 8.33429 37.9599 8.33398 37.4999V34.9999H31.6673V37.5008C31.6676 37.9608 32.0406 38.3335 32.5007 38.3332C32.9606 38.3329 33.3343 37.9599 33.334 37.4999V34.9151C35.2348 34.5278 36.6655 32.8481 36.6673 30.8332V22.4999C36.6654 20.4127 35.1256 18.7004 33.1229 18.3965ZM10.8649 11.7089C11.2043 10.6875 12.1601 9.99876 13.2363 9.99988H26.765C27.8412 9.99876 28.797 10.6875 29.1364 11.7089L31.3451 18.3332H8.65625L10.8649 11.7089ZM35.0007 30.8332C34.9991 32.2133 33.8808 33.3317 32.5007 33.3332H7.50065C6.12054 33.3317 5.00218 32.2133 5.00065 30.8332V22.4999C5.00218 21.1198 6.12054 20.0014 7.50065 19.9999H32.5007C33.8808 20.0014 34.9991 21.1198 35.0007 22.4999V30.8332ZM21.6673 25.8332H18.334C17.8738 25.8332 17.5007 26.2063 17.5007 26.6665C17.5007 27.1267 17.8738 27.4999 18.334 27.4999H21.6673C22.1275 27.4999 22.5007 27.1267 22.5007 26.6665C22.5007 26.2063 22.1275 25.8332 21.6673 25.8332Z" fill="#1E4B8A"/>
</svg>
