<svg width="24" height="24" viewBox="0 0 24 24" fill="none" xmlns="http://www.w3.org/2000/svg">
<path d="M13.4134 12.0004L16.7064 8.70741C16.8886 8.5188 16.9894 8.2662 16.9871 8.00401C16.9848 7.74181 16.8797 7.491 16.6942 7.30559C16.5088 7.12018 16.258 7.01501 15.9958 7.01273C15.7336 7.01045 15.481 7.11125 15.2924 7.29341L11.9994 10.5864L8.70643 7.29341C8.51783 7.11125 8.26523 7.01045 8.00303 7.01273C7.74083 7.01501 7.49002 7.12018 7.30461 7.30559C7.1192 7.491 7.01403 7.74181 7.01176 8.00401C7.00948 8.2662 7.11027 8.5188 7.29243 8.70741L10.5854 12.0004L7.29243 15.2934C7.11027 15.482 7.00948 15.7346 7.01176 15.9968C7.01403 16.259 7.1192 16.5098 7.30461 16.6952C7.49002 16.8806 7.74083 16.9858 8.00303 16.9881C8.26523 16.9904 8.51783 16.8896 8.70643 16.7074L11.9994 13.4144L15.2924 16.7074C15.481 16.8896 15.7336 16.9904 15.9958 16.9881C16.258 16.9858 16.5088 16.8806 16.6942 16.6952C16.8797 16.5098 16.9848 16.259 16.9871 15.9968C16.9894 15.7346 16.8886 15.482 16.7064 15.2934L13.4134 12.0004Z" fill="black"/>
<path d="M19.0698 4.92984C18.1474 3.97473 17.0439 3.21291 15.8239 2.68882C14.6038 2.16473 13.2916 1.88887 11.9638 1.87733C10.6361 1.86579 9.31926 2.11881 8.09029 2.62162C6.86133 3.12443 5.74481 3.86696 4.80589 4.80589C3.86696 5.74481 3.12443 6.86133 2.62162 8.09029C2.11881 9.31926 1.86579 10.6361 1.87733 11.9638C1.88887 13.2916 2.16473 14.6038 2.68882 15.8239C3.21291 17.0439 3.97473 18.1474 4.92984 19.0698C5.8523 20.0249 6.95575 20.7868 8.17579 21.3109C9.39583 21.8349 10.708 22.1108 12.0358 22.1223C13.3636 22.1339 14.6804 21.8809 15.9094 21.3781C17.1383 20.8752 18.2549 20.1327 19.1938 19.1938C20.1327 18.2549 20.8752 17.1383 21.3781 15.9094C21.8809 14.6804 22.1339 13.3636 22.1223 12.0358C22.1108 10.708 21.8349 9.39583 21.3109 8.17579C20.7868 6.95575 20.0249 5.8523 19.0698 4.92984ZM16.7068 15.2928C16.8023 15.3851 16.8785 15.4954 16.9309 15.6174C16.9833 15.7394 17.0109 15.8707 17.0121 16.0034C17.0132 16.1362 16.9879 16.2679 16.9377 16.3908C16.8874 16.5137 16.8131 16.6253 16.7192 16.7192C16.6253 16.8131 16.5137 16.8874 16.3908 16.9377C16.2679 16.9879 16.1362 17.0132 16.0034 17.0121C15.8707 17.0109 15.7394 16.9833 15.6174 16.9309C15.4954 16.8785 15.3851 16.8023 15.2928 16.7068L11.9998 13.4138L8.70683 16.7068C8.51823 16.889 8.26563 16.9898 8.00343 16.9875C7.74124 16.9852 7.49042 16.8801 7.30502 16.6947C7.11961 16.5092 7.01444 16.2584 7.01216 15.9962C7.00988 15.734 7.11068 15.4814 7.29284 15.2928L10.5858 11.9998L7.29284 8.70683C7.11068 8.51823 7.00988 8.26563 7.01216 8.00343C7.01444 7.74124 7.11961 7.49042 7.30502 7.30502C7.49042 7.11961 7.74124 7.01444 8.00343 7.01216C8.26563 7.00988 8.51823 7.11068 8.70683 7.29284L11.9998 10.5858L15.2928 7.29284C15.4814 7.11068 15.734 7.00988 15.9962 7.01216C16.2584 7.01444 16.5092 7.11961 16.6947 7.30502C16.8801 7.49042 16.9852 7.74124 16.9875 8.00343C16.9898 8.26563 16.889 8.51823 16.7068 8.70683L13.4138 11.9998L16.7068 15.2928Z" fill="#F6F8FC"/>
</svg>
