<svg width="40" height="40" viewBox="0 0 40 40" fill="none" xmlns="http://www.w3.org/2000/svg">
<path d="M37.3352 27.9024V18.954C37.3352 18.7829 37.2672 18.6188 37.1462 18.4978C37.0252 18.3769 36.8611 18.3089 36.69 18.3089H20.6452V12.0966C22.1623 11.7928 23.31 10.4408 23.31 8.82243C23.31 6.98146 21.8252 5.4834 20 5.4834C18.1748 5.4834 16.69 6.98146 16.69 8.82243C16.69 10.4408 17.8374 11.7928 19.3548 12.0966V18.3089H3.31C3.13889 18.3089 2.97479 18.3769 2.8538 18.4978C2.73281 18.6188 2.66484 18.7829 2.66484 18.954V27.9028C1.14742 28.2063 0 29.5586 0 31.1766C0 33.0176 1.48484 34.5157 3.31 34.5157C5.13516 34.5157 6.62032 33.0176 6.62032 31.1766C6.62032 29.5582 5.47258 28.2063 3.95516 27.9024V19.5992H19.3548V27.9028C17.8377 28.2066 16.69 29.5586 16.69 31.1769C16.69 33.0176 18.1748 34.5157 20 34.5157C21.8252 34.5157 23.31 33.0176 23.31 31.1766C23.31 29.5582 22.1626 28.2063 20.6452 27.9024V19.5992H36.0448V27.9028C34.5274 28.2066 33.3797 29.5586 33.3797 31.1769C33.3797 33.0179 34.8648 34.516 36.69 34.516C38.5152 34.516 40 33.0176 40 31.1766C40 29.5586 38.8526 28.2063 37.3352 27.9024ZM5.32968 31.1766C5.32968 32.3063 4.42355 33.2253 3.30968 33.2253C2.19645 33.2253 1.29032 32.3063 1.29032 31.1766C1.29032 30.0469 2.19645 29.1279 3.31 29.1279C4.42387 29.1282 5.32968 30.0469 5.32968 31.1766ZM17.9803 8.82243C17.9803 7.69275 18.8865 6.77372 20 6.77372C21.1135 6.77372 22.0197 7.69275 22.0197 8.82243C22.0197 9.95211 21.1135 10.8708 20 10.8708C18.8865 10.8708 17.9803 9.95211 17.9803 8.82243ZM22.0197 31.1766C22.0197 32.3063 21.1135 33.2253 20 33.2253C18.8865 33.2253 17.9803 32.3063 17.9803 31.1766C17.9803 30.0469 18.8865 29.1279 20 29.1279C21.1135 29.1279 22.0197 30.0469 22.0197 31.1766ZM36.69 33.2253C35.5761 33.2253 34.67 32.3063 34.67 31.1766C34.67 30.0469 35.5761 29.1279 36.69 29.1279C37.8035 29.1279 38.7097 30.0469 38.7097 31.1766C38.7097 32.3063 37.8035 33.2253 36.69 33.2253Z" fill="#1E4B8A"/>
</svg>
