<svg width="40" height="40" viewBox="0 0 40 40" fill="none" xmlns="http://www.w3.org/2000/svg">
<path d="M0.833984 9.16699V30.8337M39.1673 9.16699V30.8337M7.78398 10.4003C11.4666 9.58093 15.2279 9.16735 19.0006 9.16699H20.984C24.7567 9.16735 28.518 9.58093 32.2006 10.4003C32.7564 10.5217 33.2541 10.8289 33.6117 11.2713C33.9692 11.7137 34.1652 12.2648 34.1673 12.8337V27.167C34.1661 27.7335 33.9725 28.2828 33.6182 28.7249C33.2639 29.167 32.77 29.4757 32.2173 29.6003C28.5347 30.4197 24.7734 30.8333 21.0007 30.8337H19.0173C15.2446 30.8333 11.4833 30.4197 7.80065 29.6003C7.24491 29.479 6.74717 29.1717 6.38962 28.7293C6.03206 28.2869 5.83606 27.7358 5.83398 27.167V12.8337C5.83521 12.2671 6.02883 11.7178 6.38311 11.2757C6.73739 10.8336 7.23133 10.525 7.78398 10.4003Z" stroke="#1E4B8A" stroke-linecap="round" stroke-linejoin="round"/>
</svg>
