<svg width="40" height="40" viewBox="0 0 40 40" fill="none" xmlns="http://www.w3.org/2000/svg">
<g clip-path="url(#clip0_614_93)">
<path d="M7.77097 8.49969C7.71286 8.55774 7.66676 8.62667 7.6353 8.70254C7.60385 8.77842 7.58766 8.85975 7.58766 8.94188C7.58766 9.02402 7.60385 9.10535 7.6353 9.18122C7.66676 9.25709 7.71286 9.32602 7.77097 9.38407L13.2897 14.9059C13.407 15.0232 13.5661 15.0891 13.7319 15.0891C13.8978 15.0891 14.0568 15.0232 14.1741 14.9059C14.2914 14.7887 14.3573 14.6296 14.3573 14.4638C14.3573 14.2979 14.2914 14.1388 14.1741 14.0216L8.65222 8.49969C8.53511 8.38329 8.37671 8.31795 8.21159 8.31795C8.04647 8.31795 7.88807 8.38329 7.77097 8.49969ZM25.6085 11.5466V3.83719C25.6085 3.67143 25.5426 3.51246 25.4254 3.39525C25.3082 3.27804 25.1492 3.21219 24.9835 3.21219C24.8177 3.21219 24.6587 3.27804 24.5415 3.39525C24.4243 3.51246 24.3585 3.67143 24.3585 3.83719V11.5466C24.3585 11.7123 24.4243 11.8713 24.5415 11.9885C24.6587 12.1057 24.8177 12.1716 24.9835 12.1716C25.1492 12.1716 25.3082 12.1057 25.4254 11.9885C25.5426 11.8713 25.6085 11.7123 25.6085 11.5466ZM15.9178 0.474694C15.8973 0.395081 15.8613 0.320288 15.8119 0.254586C15.7625 0.188885 15.7006 0.133562 15.6298 0.0917755C15.559 0.0499891 15.4806 0.022558 15.3992 0.0110482C15.3178 -0.000461614 15.235 0.00417539 15.1553 0.0246944C15.0757 0.0452135 15.0009 0.0812127 14.9352 0.130637C14.8695 0.180061 14.8142 0.241942 14.7724 0.312746C14.7306 0.383551 14.7032 0.461893 14.6917 0.543299C14.6802 0.624705 14.6848 0.707581 14.7053 0.787194L16.5803 8.28719C16.6009 8.36681 16.6369 8.4416 16.6863 8.5073C16.7357 8.573 16.7976 8.62833 16.8684 8.67011C16.9392 8.7119 17.0175 8.73933 17.0989 8.75084C17.1804 8.76235 17.2632 8.75771 17.3428 8.73719C17.4225 8.71668 17.4972 8.68068 17.5629 8.63125C17.6287 8.58183 17.684 8.51995 17.7258 8.44914C17.7675 8.37834 17.795 8.3 17.8065 8.21859C17.818 8.13718 17.8134 8.05431 17.7928 7.97469L15.9178 0.474694ZM7.67722 22.7497C9.63972 25.5622 9.62409 26.8309 9.61159 28.0622C9.51784 37.0122 15.721 39.7778 19.4053 39.9997C19.6866 40.0153 19.9585 40.0247 20.2303 40.0247C21.9341 40.0449 23.6228 39.7036 25.1849 39.0233C26.7471 38.3429 28.1472 37.339 29.2928 36.0778L31.3397 33.8216L31.3741 33.7809L32.3897 32.6591C32.7493 32.2992 33.0053 31.849 33.1307 31.356C33.2561 30.8629 33.2463 30.3452 33.1024 29.8572C32.9585 29.3692 32.6858 28.929 32.3129 28.5829C31.9401 28.2368 31.4808 27.9975 30.9835 27.8903C31.0811 27.5356 31.1006 27.164 31.0406 26.801C30.9807 26.438 30.8427 26.0923 30.6363 25.7878C30.4298 25.4833 30.1598 25.2273 29.8447 25.0372C29.5297 24.8472 29.1772 24.7278 28.8116 24.6872C28.9132 24.4066 28.966 24.1106 28.9678 23.8122C28.9696 23.1605 28.7449 22.5284 28.3322 22.0239C27.9195 21.5195 27.3445 21.174 26.7053 21.0466L30.096 17.6434C30.362 17.3783 30.5725 17.0628 30.7153 16.7154C30.858 16.368 30.9302 15.9956 30.9275 15.6201C30.9248 15.2445 30.8473 14.8732 30.6995 14.5279C30.5518 14.1826 30.3367 13.8702 30.0669 13.6089C29.7971 13.3476 29.478 13.1426 29.1281 13.006C28.7782 12.8694 28.4047 12.8038 28.0292 12.8132C27.6537 12.8225 27.2838 12.9065 26.9412 13.0603C26.5985 13.2142 26.29 13.4347 26.0335 13.7091C22.3178 17.6747 17.6991 22.1872 15.8772 22.9278C14.8147 23.3653 14.5585 23.0247 13.7366 21.6778C13.1658 20.6226 12.4076 19.6801 11.4991 18.8966C10.4178 18.0184 9.14597 17.9934 8.09284 18.8278C6.90222 19.7684 6.73034 21.3872 7.67722 22.7497ZM30.3803 29.0809C30.5877 29.0802 30.7931 29.1206 30.9846 29.2001C31.1762 29.2795 31.35 29.3962 31.496 29.5434C31.6433 29.6927 31.7596 29.8696 31.8383 30.064C31.9169 30.2584 31.9564 30.4664 31.9543 30.6761C31.9523 30.8858 31.9088 31.093 31.8264 31.2859C31.744 31.4787 31.6243 31.6533 31.4741 31.7997L30.4835 32.8903C30.2181 33.0156 29.9208 33.0567 29.6315 33.0081C29.3421 32.9595 29.0745 32.8236 28.8647 32.6184L28.8085 32.5591C28.5529 32.3084 28.3993 31.972 28.3774 31.6147C28.3554 31.2574 28.4667 30.9047 28.6897 30.6247L30.2522 29.0622L30.3803 29.0809ZM29.4428 26.2872C29.6742 26.5167 29.8105 26.825 29.8244 27.1506C29.8383 27.4762 29.7288 27.7951 29.5178 28.0434C29.4917 28.0674 29.4677 28.0935 29.446 28.1216L27.6522 29.9153C27.3989 30.008 27.1247 30.0278 26.8607 29.9726C26.5967 29.9173 26.3534 29.7892 26.1585 29.6028L26.0835 29.5278C25.8375 29.2724 25.6929 28.9361 25.6768 28.5818C25.6607 28.2275 25.7742 27.8795 25.996 27.6028C26.246 27.4091 27.2928 26.5809 27.8491 26.1028C28.0966 25.9529 28.387 25.8897 28.6744 25.9231C28.9619 25.9565 29.23 26.0846 29.4366 26.2872H29.4428ZM27.2553 22.6903C27.4026 22.8363 27.5193 23.0101 27.5987 23.2016C27.6781 23.3932 27.7186 23.5986 27.7178 23.8059C27.677 24.3136 27.442 24.786 27.0616 25.1247C26.6803 25.4559 25.8585 26.1153 25.2522 26.5903C24.9937 26.6641 24.7201 26.6671 24.4601 26.5989C24.2001 26.5307 23.9631 26.3939 23.7741 26.2028L23.7335 26.1622C23.4489 25.8774 23.2891 25.4913 23.2891 25.0888C23.2891 24.6862 23.4489 24.3001 23.7335 24.0153L25.2022 22.5466C25.5032 22.3182 25.8767 22.2066 26.2536 22.2325C26.6305 22.2584 26.9853 22.4199 27.2522 22.6872L27.2553 22.6903ZM8.87097 19.7934C9.47097 19.3184 10.0741 19.3372 10.7116 19.8528C11.507 20.5464 12.1698 21.3786 12.6678 22.3091C12.9578 22.8515 13.3217 23.3511 13.7491 23.7934C13.7607 23.8107 13.7733 23.8274 13.7866 23.8434C13.8397 23.8997 15.0366 25.2091 13.8178 27.1122C13.7357 27.2517 13.7109 27.4176 13.7487 27.575C13.7865 27.7324 13.8838 27.8691 14.0203 27.9561C14.1568 28.0432 14.3217 28.0739 14.4804 28.0418C14.639 28.0097 14.7791 27.9173 14.871 27.7841C15.2158 27.2897 15.4464 26.7247 15.5458 26.1301C15.6453 25.5356 15.6112 24.9263 15.446 24.3466C15.7555 24.3042 16.0581 24.2212 16.346 24.0997C18.8053 23.0903 24.571 17.1059 26.9397 14.5778C27.0836 14.4226 27.2575 14.2983 27.4509 14.2124C27.6443 14.1264 27.8531 14.0806 28.0647 14.0778C28.2766 14.0745 28.487 14.1137 28.6835 14.1932C28.8799 14.2726 29.0584 14.3907 29.2085 14.5403C29.3554 14.6869 29.472 14.861 29.5515 15.0527C29.631 15.2444 29.672 15.45 29.672 15.6575C29.672 15.8651 29.631 16.0706 29.5515 16.2623C29.472 16.454 29.3554 16.6281 29.2085 16.7747L22.846 23.1247C22.5875 23.382 22.3823 23.6878 22.2423 24.0246C22.1024 24.3614 22.0303 24.7225 22.0303 25.0872C22.0303 25.4519 22.1024 25.813 22.2423 26.1498C22.3823 26.4866 22.5875 26.7924 22.846 27.0497L22.8803 27.0841C23.3107 27.5156 23.8726 27.7916 24.4772 27.8684C24.3683 28.3194 24.3765 28.7908 24.5012 29.2377C24.626 29.6846 24.863 30.0922 25.1897 30.4216L25.2147 30.4434L25.2397 30.4684C25.7467 30.9709 26.4322 31.2518 27.146 31.2497C27.1033 31.6491 27.1507 32.0529 27.2849 32.4315C27.419 32.8101 27.6364 33.1538 27.921 33.4372L27.9678 33.4903C28.3294 33.851 28.7854 34.1023 29.2835 34.2153L28.346 35.2497L28.321 35.2778C27.202 36.4824 25.8265 37.4199 24.2962 38.0209C22.7659 38.6219 21.12 38.871 19.4803 38.7497C17.8701 38.6101 16.3196 38.0732 14.9678 37.1872C15.0647 37.1872 15.1647 37.1872 15.2647 37.1872H15.5303C17.0928 37.0872 18.521 36.1403 19.796 34.3747C19.888 34.2398 19.9236 34.0744 19.8952 33.9136C19.8667 33.7528 19.7765 33.6096 19.6439 33.5145C19.5112 33.4193 19.3466 33.3799 19.1852 33.4046C19.0238 33.4293 18.8785 33.5161 18.7803 33.6466C17.7397 35.0966 16.6241 35.8716 15.4616 35.9497C13.8397 36.0559 12.5928 34.7591 12.5741 34.7403C12.5465 34.7114 12.5161 34.6853 12.4835 34.6622C11.5053 33.1184 10.8335 30.9997 10.8647 28.0716C10.8835 26.4184 10.7335 24.9247 8.70534 22.0247C8.23347 21.3622 8.10534 20.4059 8.87097 19.7934Z" fill="#1E4B8A"/>
<path d="M18.6039 12.7441L17.2227 12.9441L18.2227 13.9191L17.9852 15.2941L19.2195 14.6441L20.4539 15.2941L20.2164 13.9191L21.2164 12.9441L19.8352 12.7441L19.2195 11.4941L18.6039 12.7441Z" fill="#1E4B8A"/>
<path d="M20.6129 5.22852L21.0348 6.17852L21.5348 5.26289L22.5691 5.15664L21.8535 4.40039L22.0723 3.38164L21.1316 3.82852L20.2285 3.30664L20.3629 4.34102L19.5879 5.03789L20.6129 5.22852Z" fill="#1E4B8A"/>
<path d="M12.2969 4.80937L11.5437 4.09375L11.4313 5.12812L10.5156 5.625L11.4656 6.05L11.6562 7.075L12.3531 6.3L13.3875 6.4375L12.8656 5.53437L13.3156 4.59687L12.2969 4.80937Z" fill="#1E4B8A"/>
<path d="M128.344 104.406C130.5 104.406 132.656 104.5 134.812 104.281C139.219 103.844 143.375 102.688 147.281 100.531C154.469 96.5625 159.969 89.5 162.062 81.5625C163.719 75.1875 163.062 68 163.062 61.4688C163.062 51.3125 163.062 41.1875 163.062 31.0312C163.062 24.125 163.062 17.2187 163.062 10.3125C163.062 -3.9375 153.25 -17.2188 139 -20.1563C135.844 -20.8125 132.719 -20.875 129.5 -20.875C126.094 -20.875 122.625 -20.5625 119.375 -19.5313C111.562 -17.0313 104.625 -11.4375 101.031 -4C98.75 0.6875 97.75 5.59374 97.75 10.75C97.75 13.5 97.75 16.2812 97.75 19.0312C97.75 28.9062 97.75 38.8125 97.75 48.6875C97.75 56.5 97.75 64.2812 97.75 72.0938C97.75 76.1562 98.125 80.2812 99.5937 84.0937C102.531 91.7187 108.156 98.2812 115.75 101.594C119.75 103.375 123.906 104.375 128.344 104.406C131.625 104.437 134.75 101.5 134.594 98.1562C134.437 94.75 131.844 91.9375 128.344 91.9062C127.469 91.9062 126.625 91.8438 125.75 91.7812C124.25 91.6562 127.187 92.0937 125.719 91.75C125.312 91.6562 124.906 91.5937 124.469 91.5C123.656 91.3125 122.844 91.0625 122.062 90.8125C121.906 90.75 120.969 90.5312 120.906 90.375C121.75 90.75 121.875 90.7812 121.25 90.5C121 90.375 120.75 90.25 120.5 90.125C119.781 89.75 119.062 89.3437 118.375 88.9062C118.031 88.6875 117.687 88.4375 117.375 88.2187C116.187 87.4375 118.406 89.125 117.344 88.2187C116.094 87.1562 114.969 86 113.906 84.7812C112.969 83.7187 114.687 85.9375 113.906 84.75C113.687 84.4062 113.437 84.0937 113.219 83.75C112.781 83.0625 112.375 82.3437 112 81.625C111.937 81.5 111.406 80.625 111.469 80.5C111.562 80.75 111.687 81 111.781 81.2188C111.687 80.9688 111.594 80.7188 111.469 80.4375C111.125 79.5313 110.844 78.5938 110.625 77.625C110.531 77.2188 110.469 76.8125 110.375 76.375C110.062 74.9688 110.469 77.5 110.375 76.5625C110.312 75.7812 110.219 75 110.219 74.1875C110.219 73.9375 110.219 73.7187 110.219 73.4687C110.219 67.3437 110.219 61.2187 110.219 55.0937C110.219 39.9687 110.094 24.875 110.219 9.75C110.219 9.3125 110.219 8.875 110.25 8.4375C110.281 8.09375 110.312 7.71875 110.344 7.375C110.469 6.0625 110.219 7.5 110.312 7.5625C110.094 7.4375 111.344 2.53125 111.781 2.34375C111.687 2.59375 111.562 2.84374 111.469 3.06249C111.594 2.81249 111.687 2.56249 111.812 2.31249C112 1.93749 112.187 1.56249 112.375 1.21874C112.781 0.499994 113.187 -0.1875 113.656 -0.875C113.75 -1 113.812 -1.09375 113.906 -1.21875C114.312 -1.75 114.219 -1.65625 113.656 -0.937504C113.656 -1.125 114.312 -1.71875 114.437 -1.875C115.031 -2.53125 115.625 -3.15626 116.281 -3.78126C116.531 -4.00001 116.781 -4.25 117.031 -4.46875C117.125 -4.5625 117.25 -4.65626 117.344 -4.71876C117.875 -5.12501 117.781 -5.0625 117.031 -4.5C117.031 -4.8125 118.812 -5.68751 119.062 -5.84376C119.781 -6.25001 120.5 -6.625 121.25 -7C122.531 -7.65625 119.906 -6.53125 121.281 -7C121.812 -7.1875 122.312 -7.37501 122.844 -7.53126C123.656 -7.78126 124.469 -7.96876 125.281 -8.15626C125.406 -8.18751 125.562 -8.21875 125.687 -8.21875C126.375 -8.34375 126.25 -8.31251 125.281 -8.18751C125.469 -8.34376 126.312 -8.28126 126.562 -8.31251C127.625 -8.37501 128.687 -8.375 129.719 -8.375C130.594 -8.375 131.469 -8.375 132.375 -8.375C133.25 -8.375 134.094 -8.3125 134.969 -8.25C136.469 -8.125 133.531 -8.5625 135 -8.21875C135.562 -8.09375 136.094 -8.00001 136.656 -7.87501C137.469 -7.65626 138.25 -7.4375 139.031 -7.125C139.156 -7.09375 139.781 -6.90625 139.812 -6.8125C139.562 -6.90625 139.312 -7.03125 139.094 -7.125C139.344 -7 139.594 -6.90626 139.844 -6.78126C140.594 -6.43751 141.312 -6.03125 142 -5.59375C142.344 -5.375 142.687 -5.15625 143.031 -4.9375C143.25 -4.78125 143.469 -4.625 143.687 -4.46875C142.969 -5.03125 142.875 -5.125 143.375 -4.6875C144.625 -3.59375 145.75 -2.46875 146.812 -1.25C147.75 -0.187504 146.031 -2.40625 146.812 -1.21875C147.031 -0.875002 147.281 -0.562508 147.5 -0.218758C147.937 0.468742 148.344 1.1875 148.719 1.90625C148.781 2.03125 149.312 2.90625 149.25 3.03125C149.156 2.78125 149.031 2.53124 148.937 2.31249C149.031 2.56249 149.125 2.81249 149.25 3.09374C149.531 3.87499 149.781 4.6875 150 5.46875C150.094 5.875 150.187 6.28124 150.281 6.68749C150.313 6.81249 150.344 6.96875 150.344 7.09375C150.469 7.78125 150.437 7.65624 150.312 6.68749C150.719 7.15624 150.5 9.09375 150.5 9.6875C150.625 24.5312 150.5 39.3438 150.5 54.1875C150.5 60.5625 150.5 66.9062 150.5 73.2812C150.5 73.4062 150.5 73.5625 150.5 73.6875C150.5 74 150.5 74.2812 150.5 74.5938C150.5 75.0312 150.469 75.4687 150.406 75.875C150.375 76.1562 150.344 76.4375 150.312 76.7187C150.437 75.75 150.469 75.625 150.344 76.3125C150.156 77.125 150 77.9687 149.781 78.7812C149.656 79.1562 149.312 80.9687 148.969 81.125C149.062 80.875 149.187 80.625 149.281 80.4062C149.156 80.6562 149.062 80.9062 148.937 81.1562C148.812 81.4063 148.688 81.6562 148.562 81.875C148.125 82.7187 147.625 83.5312 147.062 84.3125C146.969 84.4375 146.906 84.5313 146.812 84.6563C146.406 85.1875 146.5 85.0937 147.062 84.375C147.062 84.5625 146.406 85.1562 146.281 85.3125C145.75 85.9375 145.187 86.5 144.594 87.0625C144.281 87.3437 144 87.625 143.687 87.875C143.594 87.9688 143.469 88.0625 143.375 88.125C142.844 88.5312 142.937 88.4687 143.687 87.9062C143.687 88.25 141.625 89.2812 141.281 89.4687C141 89.625 139.312 90.7188 139.094 90.5938C139.156 90.625 140.344 90.125 139.437 90.4375C139.031 90.5625 138.656 90.7187 138.25 90.8438C137.469 91.0938 136.656 91.3125 135.812 91.5C135.719 91.5312 134.594 91.7812 134.562 91.7187C135.531 91.5937 135.656 91.5937 134.969 91.6562C134.688 91.6875 134.406 91.7187 134.125 91.7187C132.187 91.8437 130.25 91.7812 128.312 91.7812C125.031 91.7812 121.906 94.6562 122.062 98.0312C122.219 101.531 124.812 104.406 128.344 104.406ZM-59.2812 104.406C-57.125 104.406 -54.9688 104.5 -52.8125 104.281C-48.4063 103.844 -44.25 102.688 -40.3438 100.531C-33.1562 96.5625 -27.6562 89.5 -25.5625 81.5625C-23.9062 75.1875 -24.5625 68 -24.5625 61.4688C-24.5625 51.3125 -24.5625 41.1875 -24.5625 31.0312C-24.5625 24.125 -24.5625 17.2187 -24.5625 10.3125C-24.5625 -3.9375 -34.375 -17.2188 -48.625 -20.1563C-51.7813 -20.8125 -54.9063 -20.875 -58.125 -20.875C-61.5313 -20.875 -65 -20.5625 -68.25 -19.5313C-76.0625 -17.0313 -83 -11.4375 -86.5938 -4C-88.875 0.6875 -89.875 5.59374 -89.875 10.75C-89.875 13.5 -89.875 16.2812 -89.875 19.0312C-89.875 28.9062 -89.875 38.8125 -89.875 48.6875C-89.875 56.5 -89.875 64.2812 -89.875 72.0938C-89.875 76.1562 -89.5 80.2812 -88.0312 84.0937C-85.0937 91.7187 -79.4688 98.2812 -71.875 101.594C-67.875 103.375 -63.7187 104.375 -59.2812 104.406C-56 104.437 -52.875 101.5 -53.0312 98.1562C-53.1875 94.75 -55.7812 91.9375 -59.2812 91.9062C-60.1562 91.9062 -61 91.8438 -61.875 91.7812C-63.375 91.6562 -60.4375 92.0937 -61.9063 91.75C-62.3125 91.6562 -62.7188 91.5937 -63.1563 91.5C-63.9688 91.3125 -64.7813 91.0625 -65.5625 90.8125C-65.7188 90.75 -66.6563 90.5312 -66.7188 90.375C-65.875 90.75 -65.75 90.7812 -66.375 90.5C-66.625 90.375 -66.875 90.25 -67.125 90.125C-67.8438 89.75 -68.5625 89.3437 -69.25 88.9062C-69.5938 88.6875 -69.9375 88.4375 -70.25 88.2187C-71.4375 87.4375 -69.2187 89.125 -70.2812 88.2187C-71.5312 87.1562 -72.6562 86 -73.7187 84.7812C-74.6562 83.7187 -72.9375 85.9375 -73.7187 84.75C-73.9375 84.4062 -74.1875 84.0937 -74.4063 83.75C-74.8438 83.0625 -75.25 82.3437 -75.625 81.625C-75.6875 81.5 -76.2187 80.625 -76.1562 80.5C-76.0625 80.75 -75.9375 81 -75.8437 81.2188C-75.9375 80.9688 -76.0312 80.7188 -76.1562 80.4375C-76.5 79.5313 -76.7812 78.5938 -77 77.625C-77.0937 77.2188 -77.1562 76.8125 -77.25 76.375C-77.5625 74.9688 -77.1562 77.5 -77.25 76.5625C-77.3125 75.7812 -77.4062 75 -77.4062 74.1875C-77.4062 73.9375 -77.4062 73.7187 -77.4062 73.4687C-77.4062 67.3437 -77.4062 61.2187 -77.4062 55.0937C-77.4062 39.9687 -77.5312 24.875 -77.4062 9.75C-77.4062 9.3125 -77.4063 8.875 -77.375 8.4375C-77.3438 8.09375 -77.3125 7.71875 -77.2813 7.375C-77.1563 6.0625 -77.4062 7.5 -77.3125 7.5625C-77.5312 7.4375 -76.2812 2.53125 -75.8437 2.34375C-75.9375 2.59375 -76.0625 2.84374 -76.1562 3.06249C-76.0312 2.81249 -75.9375 2.56249 -75.8125 2.31249C-75.625 1.93749 -75.4375 1.56249 -75.25 1.21874C-74.8438 0.499994 -74.4375 -0.1875 -73.9687 -0.875C-73.875 -1 -73.8125 -1.09375 -73.7187 -1.21875C-73.3125 -1.75 -73.4062 -1.65625 -73.9687 -0.937504C-73.9687 -1.125 -73.3125 -1.71875 -73.1875 -1.875C-72.5937 -2.53125 -72 -3.15626 -71.3438 -3.78126C-71.0938 -4.00001 -70.8437 -4.25 -70.5937 -4.46875C-70.5 -4.5625 -70.375 -4.65626 -70.2812 -4.71876C-69.75 -5.12501 -69.8437 -5.0625 -70.5937 -4.5C-70.5937 -4.8125 -68.8125 -5.68751 -68.5625 -5.84376C-67.8437 -6.25001 -67.125 -6.625 -66.375 -7C-65.0937 -7.65625 -67.7188 -6.53125 -66.3438 -7C-65.8125 -7.1875 -65.3125 -7.37501 -64.7813 -7.53126C-63.9688 -7.78126 -63.1563 -7.96876 -62.3438 -8.15626C-62.2188 -8.18751 -62.0625 -8.21875 -61.9375 -8.21875C-61.25 -8.34375 -61.375 -8.31251 -62.3438 -8.18751C-62.1563 -8.34376 -61.3125 -8.28126 -61.0625 -8.31251C-60 -8.37501 -58.9375 -8.375 -57.9063 -8.375C-57.0313 -8.375 -56.1563 -8.375 -55.25 -8.375C-54.375 -8.375 -53.5313 -8.3125 -52.6563 -8.25C-51.1563 -8.125 -54.0937 -8.5625 -52.625 -8.21875C-52.0625 -8.09375 -51.5313 -8.00001 -50.9688 -7.87501C-50.1563 -7.65626 -49.375 -7.4375 -48.5937 -7.125C-48.4687 -7.09375 -47.8437 -6.90625 -47.8125 -6.8125C-48.0625 -6.90625 -48.3125 -7.03125 -48.5313 -7.125C-48.2813 -7 -48.0312 -6.90626 -47.7812 -6.78126C-47.0312 -6.43751 -46.3125 -6.03125 -45.625 -5.59375C-45.2812 -5.375 -44.9375 -5.15625 -44.5938 -4.9375C-44.375 -4.78125 -44.1562 -4.625 -43.9375 -4.46875C-44.6562 -5.03125 -44.75 -5.125 -44.25 -4.6875C-43 -3.59375 -41.875 -2.46875 -40.8125 -1.25C-39.875 -0.187504 -41.5938 -2.40625 -40.8125 -1.21875C-40.5938 -0.875002 -40.3437 -0.562508 -40.125 -0.218758C-39.6875 0.468742 -39.2812 1.1875 -38.9062 1.90625C-38.8437 2.03125 -38.3125 2.90625 -38.375 3.03125C-38.4687 2.78125 -38.5937 2.53124 -38.6875 2.31249C-38.5937 2.56249 -38.5 2.81249 -38.375 3.09374C-38.0937 3.87499 -37.8437 4.6875 -37.625 5.46875C-37.5312 5.875 -37.4375 6.28124 -37.3437 6.68749C-37.3125 6.81249 -37.2812 6.96875 -37.2812 7.09375C-37.1562 7.78125 -37.1875 7.65624 -37.3125 6.68749C-36.9062 7.15624 -37.125 9.09375 -37.125 9.6875C-37 24.5312 -37.125 39.3438 -37.125 54.1875C-37.125 60.5625 -37.125 66.9062 -37.125 73.2812C-37.125 73.4062 -37.125 73.5625 -37.125 73.6875C-37.125 74 -37.125 74.2812 -37.125 74.5938C-37.125 75.0312 -37.1562 75.4687 -37.2188 75.875C-37.25 76.1562 -37.2812 76.4375 -37.3125 76.7187C-37.1875 75.75 -37.1562 75.625 -37.2812 76.3125C-37.4687 77.125 -37.625 77.9687 -37.8438 78.7812C-37.9688 79.1562 -38.3125 80.9687 -38.6563 81.125C-38.5625 80.875 -38.4375 80.625 -38.3438 80.4062C-38.4688 80.6562 -38.5625 80.9062 -38.6875 81.1562C-38.8125 81.4063 -38.9375 81.6562 -39.0625 81.875C-39.5 82.7187 -40 83.5312 -40.5625 84.3125C-40.6562 84.4375 -40.7187 84.5313 -40.8125 84.6563C-41.2187 85.1875 -41.125 85.0937 -40.5625 84.375C-40.5625 84.5625 -41.2187 85.1562 -41.3437 85.3125C-41.875 85.9375 -42.4375 86.5 -43.0313 87.0625C-43.3438 87.3437 -43.625 87.625 -43.9375 87.875C-44.0313 87.9688 -44.1562 88.0625 -44.25 88.125C-44.7813 88.5312 -44.6875 88.4687 -43.9375 87.9062C-43.9375 88.25 -46 89.2812 -46.3438 89.4687C-46.625 89.625 -48.3125 90.7188 -48.5313 90.5938C-48.4688 90.625 -47.2813 90.125 -48.1875 90.4375C-48.5938 90.5625 -48.9687 90.7187 -49.375 90.8438C-50.1562 91.0938 -50.9688 91.3125 -51.8125 91.5C-51.9063 91.5312 -53.0313 91.7812 -53.0625 91.7187C-52.0938 91.5937 -51.9688 91.5937 -52.6563 91.6562C-52.9375 91.6875 -53.2187 91.7187 -53.5 91.7187C-55.4375 91.8437 -57.375 91.7812 -59.3125 91.7812C-62.5938 91.7812 -65.7188 94.6562 -65.5625 98.0312C-65.375 101.531 -62.7812 104.406 -59.2812 104.406Z" fill="#1E4B8A"/>
<path d="M-77.4062 71.7498C-77.4062 66.9998 -77.4062 62.281 -77.4062 57.531C-77.4062 47.656 -77.4062 37.7498 -77.4062 27.8748C-77.4062 19.1248 -77.4062 10.3748 -77.4062 1.62478C-77.4062 -0.312723 -77.4062 -2.25023 -77.4062 -4.18773C-77.4062 -6.03148 -77.375 -7.90648 -77.2812 -9.75023C-77.1875 -11.6252 -77.0625 -13.5315 -76.9063 -15.4065C-76.8125 -16.2815 -76.75 -17.1252 -76.6562 -18.0002C-76.5937 -18.4377 -76.5625 -18.844 -76.5 -19.2815C-76.4687 -19.5002 -76.4375 -19.719 -76.4062 -19.9377C-76.3125 -20.8127 -76.5937 -18.6877 -76.4687 -19.5627C-75.4062 -26.6565 -73.8438 -33.6252 -71.5938 -40.4065C-71.0313 -42.0627 -70.4687 -43.719 -69.8437 -45.344C-69.5312 -46.1252 -69.25 -46.9065 -68.9375 -47.6877C-68.7813 -48.0627 -68.625 -48.469 -68.4688 -48.844C-68.1875 -49.5002 -68.6875 -48.3127 -68.6875 -48.3127C-68.5625 -48.5627 -68.4687 -48.8127 -68.3437 -49.094C-66.9375 -52.344 -65.375 -55.5002 -63.6875 -58.6252C-62.0312 -61.6565 -60.25 -64.594 -58.3437 -67.469C-57.4062 -68.9065 -56.4063 -70.3127 -55.4062 -71.719C-54.9062 -72.3752 -54.4375 -73.0627 -53.9375 -73.719C-53.8125 -73.8752 -53.6875 -74.0315 -53.5625 -74.219C-53.1562 -74.7815 -53.9062 -73.7502 -53.9062 -73.7815C-53.7187 -74.1877 -53.2813 -74.5627 -53 -74.9065C-48.6875 -80.3127 -43.875 -85.3752 -38.6875 -89.969C-37.4062 -91.094 -36.0938 -92.219 -34.75 -93.3127C-34.125 -93.8127 -33.4062 -94.6252 -32.6562 -94.969C-32.6562 -94.969 -33.6562 -94.219 -33.0937 -94.6252C-32.9375 -94.7502 -32.7812 -94.8752 -32.5937 -95.0002C-32.2187 -95.2815 -31.8125 -95.594 -31.4375 -95.8752C-28.6563 -97.9065 -25.8125 -99.844 -22.875 -101.656C-19.875 -103.5 -16.7813 -105.219 -13.625 -106.781C-12.0625 -107.563 -10.5 -108.313 -8.9375 -109C-8.5625 -109.156 -8.18749 -109.344 -7.78124 -109.5C-7.59374 -109.594 -7.40625 -109.656 -7.21875 -109.75C-7.21875 -109.75 -8.40625 -109.25 -7.75 -109.531C-6.90625 -109.875 -6.06251 -110.219 -5.21876 -110.563C1.40624 -113.156 8.25 -115.156 15.2188 -116.5C16.9687 -116.844 18.7188 -117.156 20.5 -117.406C20.9375 -117.469 21.3438 -117.5 21.7812 -117.594C21.7812 -117.594 20.4687 -117.438 21.1875 -117.5C21.4062 -117.531 21.625 -117.563 21.8438 -117.594C22.7813 -117.719 23.7187 -117.813 24.625 -117.906C28.3125 -118.281 32.0313 -118.469 35.75 -118.5C39.25 -118.531 42.75 -118.406 46.25 -118.125C48.0625 -117.969 49.8438 -117.781 51.625 -117.563C51.8437 -117.531 52.0625 -117.5 52.2812 -117.469C52.2812 -117.469 50.9688 -117.656 51.6875 -117.531C52.125 -117.469 52.5312 -117.406 52.9687 -117.344C53.9687 -117.188 54.9375 -117.031 55.9375 -116.844C62.875 -115.625 69.7187 -113.75 76.3125 -111.313C77.0938 -111.031 77.875 -110.719 78.6562 -110.406C79.125 -110.219 79.5625 -110.031 80 -109.875C80.25 -109.781 81.625 -109.156 80.7812 -109.563C79.9375 -109.969 81.1563 -109.406 81.375 -109.313C81.75 -109.156 82.125 -108.969 82.5312 -108.813C83.3437 -108.438 84.1562 -108.063 85 -107.688C88.125 -106.188 91.1875 -104.563 94.1562 -102.813C97.1875 -101.031 100.125 -99.1252 103 -97.0627C103.687 -96.594 104.344 -96.094 105 -95.594C105.344 -95.344 105.656 -95.094 106 -94.844C106.156 -94.719 106.344 -94.594 106.5 -94.469C106.281 -94.6877 105.563 -95.1877 106.219 -94.6877C107.563 -93.6252 108.906 -92.5315 110.219 -91.4377C115.5 -86.9377 120.375 -81.969 124.813 -76.6252C125.344 -76.0002 125.844 -75.344 126.375 -74.719C126.625 -74.4065 126.969 -74.094 127.125 -73.7502C127.125 -73.7502 126.375 -74.7502 126.781 -74.1877C126.938 -73.969 127.125 -73.7502 127.281 -73.5315C128.312 -72.1565 129.312 -70.7502 130.312 -69.344C132.312 -66.4377 134.188 -63.469 135.906 -60.4065C137.625 -57.4065 139.187 -54.3127 140.656 -51.1565C141 -50.4065 141.344 -49.6252 141.688 -48.8752C141.781 -48.6877 141.844 -48.5002 141.938 -48.3127C141.938 -48.3127 141.437 -49.5002 141.719 -48.844C141.906 -48.4065 142.094 -47.9377 142.281 -47.5002C142.969 -45.8127 143.594 -44.1252 144.188 -42.4065C146.563 -35.6877 148.313 -28.719 149.438 -21.6877C149.5 -21.2502 149.562 -20.844 149.625 -20.4065C149.656 -20.1565 149.875 -18.7815 149.719 -19.7502C149.562 -20.719 149.781 -19.3127 149.813 -19.094C149.875 -18.594 149.937 -18.094 150 -17.594C150.187 -15.7815 150.344 -14.0002 150.469 -12.1877C150.625 -9.59398 150.719 -7.03148 150.719 -4.43773C150.719 -3.06273 150.719 -1.65648 150.719 -0.281475C150.719 7.21852 150.719 14.6873 150.719 22.1873C150.719 32.4685 150.719 42.7498 150.719 53.031C150.719 61.906 150.719 70.7498 150.719 79.6248C150.719 84.2498 150.906 88.906 150.594 93.531C150.531 94.406 150.469 95.2498 150.375 96.1248C150.344 96.406 150.062 97.7185 150.312 96.781C150.562 95.8435 150.219 97.3435 150.156 97.656C149.875 99.406 149.5 101.125 149.031 102.844C148.563 104.594 148 106.344 147.375 108.031C147.219 108.437 147.094 108.812 146.938 109.187C146.875 109.375 146.75 109.562 146.719 109.781C146.719 109.781 147.219 108.625 146.938 109.25C146.562 110.062 146.219 110.906 145.812 111.687C144.312 114.781 142.5 117.719 140.469 120.5C140.344 120.656 140.219 120.812 140.094 121C139.687 121.562 140.469 120.531 140.438 120.562C140.281 120.906 139.906 121.25 139.656 121.531C139.063 122.281 138.438 123 137.781 123.719C136.625 125 135.438 126.219 134.188 127.375C133.063 128.437 131.688 130.031 130.281 130.719C130.25 130.719 131.312 129.969 130.719 130.375C130.562 130.5 130.375 130.625 130.219 130.75C129.875 131 129.562 131.219 129.219 131.469C128.5 131.969 127.75 132.469 127 132.969C125.563 133.906 124.062 134.75 122.531 135.531C121.719 135.937 120.937 136.344 120.094 136.719C119.719 136.906 119.344 137.062 118.969 137.219C118.344 137.5 119.5 137 119.5 137C119.25 137.062 118.969 137.219 118.719 137.312C115.469 138.594 112.062 139.562 108.625 140.25C107.812 140.406 106.906 140.437 106.094 140.687C106.094 140.687 107.406 140.531 106.688 140.594C106.469 140.625 106.25 140.656 106.031 140.656C105.531 140.719 105.031 140.75 104.531 140.812C102.875 140.969 101.188 141.031 99.5 141.031C91.6563 141.062 83.7812 141.031 75.9375 141.031C73.3437 141.031 70.7813 141.031 68.1875 141.031C64.9062 141.031 61.7812 143.906 61.9375 147.281C62.0938 150.656 64.6875 153.531 68.1875 153.531C76.0937 153.531 84 153.531 91.9062 153.531C94.875 153.531 97.875 153.594 100.844 153.531C108.469 153.344 116.125 151.844 123.188 148.906C137.406 143.031 149.469 132.281 156.375 118.437C161.156 108.844 163.188 98.6248 163.188 87.9685C163.188 81.3748 163.188 74.781 163.188 68.1873C163.188 57.9373 163.188 47.6873 163.188 37.4685C163.188 27.906 163.188 18.3435 163.188 8.81228C163.188 4.43728 163.188 0.0310249 163.188 -4.34398C163.156 -18.8127 160.719 -33.3752 155.75 -46.969C150.594 -61.094 143.063 -74.094 133.406 -85.6252C124.156 -96.719 112.844 -106.219 100.375 -113.531C87.625 -121 73.4687 -126.313 58.9062 -128.844C43.5312 -131.531 27.9375 -131.406 12.625 -128.5C-1.8125 -125.75 -15.8125 -120.281 -28.375 -112.688C-40.75 -105.188 -51.9375 -95.594 -61.0312 -84.344C-70.5625 -72.6252 -78 -59.469 -82.9687 -45.1565C-87.5312 -32.0315 -89.75 -18.094 -89.7812 -4.21898C-89.7812 1.34352 -89.7812 6.87477 -89.7812 12.4373C-89.7812 22.6873 -89.7812 32.9373 -89.7812 43.1873C-89.7812 51.4373 -89.7812 59.7185 -89.7812 67.9685C-89.7812 69.2498 -89.7812 70.5623 -89.7812 71.8435C-89.7812 75.1248 -86.9063 78.2498 -83.5312 78.0935C-80.2813 77.8435 -77.4062 75.2498 -77.4062 71.7498Z" fill="#1E4B8A"/>
</g>
<defs>
<clipPath id="clip0_614_93">
<rect width="40" height="40" fill="white"/>
</clipPath>
</defs>
</svg>
