<svg width="40" height="40" viewBox="0 0 40 40" fill="none" xmlns="http://www.w3.org/2000/svg">
<g clip-path="url(#clip0_614_76)">
<path d="M13.5473 27.0777C15.6499 27.6319 17.8611 27.6243 19.9598 27.0558C20.6223 26.8589 20.4973 25.6214 20.5536 25.0964C20.6629 24.0277 20.7754 22.9589 20.9379 21.8995C21.0795 21.2354 21.4221 20.6309 21.9192 20.1683C22.464 19.6008 22.9713 18.9985 23.4379 18.3652C23.7504 17.9433 24.5754 17.1339 24.2004 16.5808C24.118 16.4603 23.996 16.3724 23.8556 16.3325C23.7152 16.2925 23.5652 16.303 23.4317 16.362C21.6567 17.1433 19.7911 17.712 18.0442 18.5495C17.3317 18.8933 17.8629 20.012 18.5911 19.6589C19.3942 19.2683 20.7786 18.7214 21.9598 18.262C21.5129 18.8245 20.9786 19.3058 20.5223 19.8558C19.6067 20.9589 19.5848 22.5902 19.4411 23.9495C19.4192 24.137 19.3286 25.937 19.2286 25.9589C17.4609 26.3277 15.6332 26.2978 13.8786 25.8714C13.719 25.8304 13.5498 25.854 13.4076 25.9371C13.2654 26.0202 13.1618 26.1561 13.1192 26.3152C13.0767 26.473 13.0977 26.6412 13.1777 26.7837C13.2577 26.9263 13.3904 27.0318 13.5473 27.0777Z" fill="#1E4B8A"/>
<path d="M33.8009 19.7969C34.5696 19.7969 37.8634 18.6125 38.5352 18.3719C38.8246 18.2663 39.0892 18.1022 39.3123 17.8899C39.5355 17.6775 39.7124 17.4213 39.8321 17.1375C39.9502 16.8539 40.0082 16.5489 40.0022 16.2417C39.9963 15.9345 39.9267 15.632 39.7977 15.3531C39.5676 14.8651 39.1705 14.4755 38.6782 14.2549C38.1858 14.0342 37.6307 13.997 37.1134 14.15C35.6981 14.55 34.2628 14.8754 32.8134 15.125C32.0227 15.1 25.4165 13.35 23.9602 12.9125C23.2071 12.6844 22.7352 12.8875 22.154 13.1938C21.7415 13.4125 16.5477 15.9438 16.1634 16.1781C16.0257 16.2657 15.9277 16.4036 15.8903 16.5624C15.8529 16.7212 15.8791 16.8884 15.9634 17.0281C16.051 17.1675 16.19 17.2667 16.3504 17.3042C16.5107 17.3416 16.6793 17.3143 16.8196 17.2281C17.179 17.0063 22.3071 14.5094 22.7384 14.2844C23.2384 14.0219 23.3321 14.0156 23.6009 14.0937C24.2946 14.3031 31.7602 16.3625 32.8446 16.3594H32.8665C34.42 16.1088 35.9571 15.7655 37.4696 15.3313C37.7093 15.2786 37.96 15.3166 38.1734 15.4377C38.3868 15.5589 38.5479 15.7548 38.6255 15.9876C38.7031 16.2205 38.6918 16.4738 38.5938 16.6988C38.4958 16.9238 38.318 17.1045 38.0946 17.2063C35.929 17.9969 34.129 18.5406 33.8134 18.5531C33.3415 18.5531 30.6352 18.2719 29.9915 18.2781C29.7196 18.2781 25.9665 21.475 25.879 21.5875C25.8156 21.6729 25.7751 21.773 25.7612 21.8784C25.7473 21.9838 25.7606 22.091 25.7997 22.1899C25.8388 22.2887 25.9025 22.376 25.9847 22.4434C26.0669 22.5108 26.165 22.5561 26.2696 22.575C26.5352 22.6406 31.5821 24.45 32.404 24.7375C32.9415 24.925 33.629 25.4219 33.3915 26.075C33.329 26.272 33.2033 26.4428 33.0337 26.5609C32.8642 26.679 32.6604 26.7378 32.454 26.7281C30.0884 26.4156 24.0165 24.5406 23.704 24.5406C23.4783 24.5143 23.2511 24.574 23.0675 24.7078C22.8839 24.8416 22.7574 25.0396 22.7134 25.2625C22.5821 25.7469 22.4165 28.3219 22.4009 28.3875C22.4009 28.5375 22.2321 28.7281 21.9384 28.9094C20.3134 29.925 15.7852 30.1938 14.0196 29.375C13.304 29.0406 12.7696 30.15 13.4884 30.4906C14.3759 30.9 15.729 31.0938 17.1571 31.0938C19.2196 31.0938 21.4384 30.6875 22.6352 29.9438C23.4321 29.45 23.6477 28.8906 23.679 28.4781C23.8071 27.9906 23.8415 26.1344 23.8915 25.8156C24.229 25.8969 29.829 27.625 32.3134 27.9625C32.8006 28.0128 33.2904 27.8956 33.7022 27.6304C34.114 27.3651 34.4233 26.9675 34.579 26.5031C35.0634 25.1625 34.0321 24.0031 32.8352 23.5844C32.0009 23.2906 28.1477 21.9094 27.6071 21.7094C28.4696 20.9594 29.7946 19.8344 30.2102 19.5219C30.7415 19.5281 33.2759 19.7875 33.8009 19.7969ZM0.625856 20.2844H10.5884C10.6776 20.2986 10.7689 20.2933 10.856 20.2689C10.943 20.2444 11.0237 20.2014 11.0925 20.1427C11.1613 20.084 11.2165 20.0111 11.2544 19.929C11.2923 19.8469 11.3119 19.7576 11.3119 19.6672C11.3119 19.5768 11.2923 19.4874 11.2544 19.4054C11.2165 19.3233 11.1613 19.2504 11.0925 19.1917C11.0237 19.133 10.943 19.09 10.856 19.0655C10.7689 19.041 10.6776 19.0358 10.5884 19.05H0.625856C0.536577 19.0358 0.445271 19.041 0.358235 19.0655C0.271199 19.09 0.190506 19.133 0.121724 19.1917C0.0529416 19.2504 -0.00229235 19.3233 -0.0401672 19.4054C-0.0780422 19.4874 -0.0976563 19.5768 -0.0976562 19.6672C-0.0976563 19.7576 -0.0780422 19.8469 -0.0401672 19.929C-0.00229235 20.0111 0.0529416 20.084 0.121724 20.1427C0.190506 20.2014 0.271199 20.2444 0.358235 20.2689C0.445271 20.2933 0.536577 20.2986 0.625856 20.2844ZM14.3259 16.5813C14.3259 16.4155 14.26 16.2565 14.1428 16.1393C14.0256 16.0221 13.8666 15.9563 13.7009 15.9563H3.75086C3.66102 15.9405 3.56882 15.9446 3.48074 15.9683C3.39267 15.992 3.31084 16.0347 3.241 16.0933C3.17117 16.152 3.11502 16.2252 3.07649 16.3079C3.03797 16.3906 3.01801 16.4807 3.01801 16.5719C3.01801 16.6631 3.03797 16.7532 3.07649 16.8359C3.11502 16.9185 3.17117 16.9918 3.241 17.0504C3.31084 17.1091 3.39267 17.1518 3.48074 17.1754C3.56882 17.1991 3.66102 17.2032 3.75086 17.1875H13.704C13.866 17.1868 14.0214 17.1231 14.1374 17.01C14.2534 16.8969 14.321 16.7432 14.3259 16.5813ZM3.12586 22.7531C3.12586 22.9189 3.1917 23.0779 3.30891 23.1951C3.42612 23.3123 3.5851 23.3781 3.75086 23.3781H13.704C13.7933 23.3924 13.8846 23.3871 13.9716 23.3626C14.0586 23.3382 14.1393 23.2951 14.2081 23.2364C14.2769 23.1778 14.3321 23.1049 14.37 23.0228C14.4079 22.9407 14.4275 22.8513 14.4275 22.7609C14.4275 22.6705 14.4079 22.5812 14.37 22.4991C14.3321 22.417 14.2769 22.3441 14.2081 22.2854C14.1393 22.2268 14.0586 22.1837 13.9716 22.1593C13.8846 22.1348 13.7933 22.1295 13.704 22.1438H3.75086C3.58777 22.1437 3.43112 22.2074 3.31435 22.3213C3.19758 22.4351 3.12993 22.5901 3.12586 22.7531ZM21.4884 8.25C21.3991 8.23575 21.3078 8.24104 21.2207 8.2655C21.1337 8.28996 21.053 8.33302 20.9842 8.39169C20.9154 8.45036 20.8602 8.52326 20.8223 8.60535C20.7845 8.68745 20.7648 8.77678 20.7648 8.86719C20.7648 8.9576 20.7845 9.04693 20.8223 9.12902C20.8602 9.21111 20.9154 9.28401 20.9842 9.34268C21.053 9.40136 21.1337 9.44441 21.2207 9.46887C21.3078 9.49334 21.3991 9.49863 21.4884 9.48438H27.4259C27.4636 9.91501 27.5846 10.3342 27.7821 10.7187H24.2915C24.2022 10.7045 24.1109 10.7098 24.0239 10.7343C23.9368 10.7587 23.8561 10.8018 23.7873 10.8604C23.7186 10.9191 23.6633 10.992 23.6255 11.0741C23.5876 11.1562 23.568 11.2455 23.568 11.3359C23.568 11.4263 23.5876 11.5157 23.6255 11.5978C23.6633 11.6799 23.7186 11.7528 23.7873 11.8114C23.8561 11.8701 23.9368 11.9132 24.0239 11.9376C24.1109 11.9621 24.2022 11.9674 24.2915 11.9531H28.8665C29.3032 12.2671 29.8082 12.4732 30.3399 12.5545C30.8716 12.6358 31.415 12.59 31.9257 12.4209C32.4363 12.2518 32.8996 11.9642 33.2777 11.5816C33.6558 11.1989 33.9379 10.7322 34.1009 10.2196C34.2639 9.70696 34.3032 9.16303 34.2155 8.63231C34.1278 8.10159 33.9157 7.59918 33.5965 7.1662C33.2774 6.73322 32.8602 6.382 32.3791 6.14127C31.8981 5.90055 31.3669 5.77718 30.829 5.78125H24.6009C24.5116 5.767 24.4203 5.77229 24.3332 5.79675C24.2462 5.82121 24.1655 5.86427 24.0967 5.92294C24.0279 5.98161 23.9727 6.05451 23.9348 6.13661C23.897 6.2187 23.8773 6.30803 23.8773 6.39844C23.8773 6.48885 23.897 6.57818 23.9348 6.66027C23.9727 6.74236 24.0279 6.81526 24.0967 6.87393C24.1655 6.93261 24.2462 6.97566 24.3332 7.00012C24.4203 7.02459 24.5116 7.02988 24.6009 7.01563H28.1884C27.887 7.3771 27.6646 7.79754 27.5352 8.25H21.4884ZM30.8321 7.01563C31.2579 7.02117 31.6726 7.15252 32.024 7.39314C32.3754 7.63376 32.6478 7.97291 32.8069 8.36794C32.9661 8.76298 33.0048 9.19624 32.9184 9.61325C32.8319 10.0303 32.6241 10.4124 32.321 10.7116C32.0179 11.0108 31.6331 11.2136 31.215 11.2947C30.7969 11.3758 30.3642 11.3314 29.9713 11.1672C29.5783 11.0029 29.2427 10.7262 29.0067 10.3717C28.7706 10.0172 28.6446 9.60088 28.6446 9.175C28.652 8.60027 28.8853 8.05154 29.2941 7.64745C29.7028 7.24337 30.2542 7.0164 30.829 7.01563H30.8321Z" fill="#1E4B8A"/>
</g>
<defs>
<clipPath id="clip0_614_76">
<rect width="40" height="40" fill="white"/>
</clipPath>
</defs>
</svg>
