<svg width="40" height="40" viewBox="0 0 40 40" fill="none" xmlns="http://www.w3.org/2000/svg">
<path d="M35.1509 11.9364C33.0856 9.87625 30.334 8.64863 27.4213 8.4878C24.5085 8.32696 21.6385 9.24417 19.3589 11.0644H10.9589C10.7998 11.0644 10.6472 11.1276 10.5346 11.2401C10.4221 11.3527 10.3589 11.5053 10.3589 11.6644C10.3589 11.8235 10.4221 11.9761 10.5346 12.0887C10.6472 12.2012 10.7998 12.2644 10.9589 12.2644H18.0789C17.4142 12.9789 16.8405 13.7729 16.3709 14.6284H6.93491C6.77578 14.6284 6.62316 14.6916 6.51064 14.8041C6.39812 14.9167 6.33491 15.0693 6.33491 15.2284C6.33491 15.3875 6.39812 15.5402 6.51064 15.6527C6.62316 15.7652 6.77578 15.8284 6.93491 15.8284H15.7949C15.0686 17.6114 14.7845 19.5438 14.9669 21.4604H10.9669C10.8078 21.4604 10.6552 21.5236 10.5426 21.6361C10.4301 21.7487 10.3669 21.9013 10.3669 22.0604C10.3669 22.2195 10.4301 22.3721 10.5426 22.4847C10.6552 22.5972 10.8078 22.6604 10.9669 22.6604H15.1469C15.3011 23.4351 15.533 24.1922 15.8389 24.9204H6.93491C6.77578 24.9204 6.62316 24.9836 6.51064 25.0961C6.39812 25.2087 6.33491 25.3613 6.33491 25.5204C6.33491 25.6795 6.39812 25.8321 6.51064 25.9447C6.62316 26.0572 6.77578 26.1204 6.93491 26.1204H16.4269C16.8817 26.9445 17.4351 27.7101 18.0749 28.4004H5.47891C5.31978 28.4004 5.16716 28.4636 5.05464 28.5761C4.94212 28.6887 4.87891 28.8413 4.87891 29.0004C4.87891 29.1595 4.94212 29.3122 5.05464 29.4247C5.16716 29.5372 5.31978 29.6004 5.47891 29.6004H18.9629C19.068 29.5991 19.1711 29.5716 19.2629 29.5204C21.6171 31.4727 24.6344 32.44 27.6849 32.2205C30.7354 32.0009 33.5831 30.6115 35.6335 28.3422C37.6838 26.073 38.7783 23.0994 38.6884 20.0424C38.5985 16.9853 37.3311 14.0812 35.1509 11.9364ZM34.3029 27.8604C32.8123 29.3498 30.9136 30.3638 28.8467 30.7743C26.7799 31.1848 24.6378 30.9732 22.6912 30.1664C20.7445 29.3597 19.0808 27.9938 17.9103 26.2417C16.7398 24.4895 16.115 22.4296 16.115 20.3224C16.115 18.2152 16.7398 16.1553 17.9103 14.4032C19.0808 12.651 20.7445 11.2852 22.6912 10.4784C24.6378 9.6716 26.7799 9.46006 28.8467 9.87052C30.9136 10.281 32.8123 11.295 34.3029 12.7844C36.2983 14.7856 37.4188 17.4964 37.4188 20.3224C37.4188 23.1484 36.2983 25.8592 34.3029 27.8604Z" fill="#1E4B8A"/>
<path d="M26.7678 11.3965C25.0028 11.3965 23.2774 11.9199 21.8098 12.9004C20.3423 13.881 19.1985 15.2748 18.5231 16.9054C17.8476 18.5361 17.6709 20.3304 18.0152 22.0615C18.3596 23.7926 19.2095 25.3827 20.4575 26.6307C21.7056 27.8787 23.2957 28.7287 25.0268 29.073C26.7579 29.4173 28.5522 29.2406 30.1828 28.5652C31.8135 27.8897 33.2072 26.7459 34.1878 25.2784C35.1684 23.8108 35.6918 22.0855 35.6918 20.3205C35.6886 17.9547 34.7474 15.6867 33.0745 14.0138C31.4016 12.3409 29.1336 11.3997 26.7678 11.3965ZM27.3678 28.0005V27.3005C27.3678 27.1414 27.3045 26.9887 27.192 26.8762C27.0795 26.7637 26.9269 26.7005 26.7678 26.7005C26.6086 26.7005 26.456 26.7637 26.3435 26.8762C26.231 26.9887 26.1678 27.1414 26.1678 27.3005V28.0005C24.3372 27.8554 22.6182 27.0631 21.3186 25.7658C20.0191 24.4685 19.224 22.7508 19.0758 20.9205H19.7878C19.9469 20.9205 20.0995 20.8573 20.212 20.7447C20.3245 20.6322 20.3878 20.4796 20.3878 20.3205C20.3878 20.1614 20.3245 20.0087 20.212 19.8962C20.0995 19.7837 19.9469 19.7205 19.7878 19.7205H19.0758C19.2205 17.8878 20.0141 16.1668 21.3141 14.8668C22.614 13.5669 24.335 12.7732 26.1678 12.6285V13.3405C26.1678 13.4996 26.231 13.6522 26.3435 13.7647C26.456 13.8773 26.6086 13.9405 26.7678 13.9405C26.9269 13.9405 27.0795 13.8773 27.192 13.7647C27.3045 13.6522 27.3678 13.4996 27.3678 13.3405V12.6285C29.2005 12.7732 30.9215 13.5669 32.2214 14.8668C33.5214 16.1668 34.315 17.8878 34.4598 19.7205H33.7478C33.5886 19.7205 33.436 19.7837 33.3235 19.8962C33.211 20.0087 33.1478 20.1614 33.1478 20.3205C33.1478 20.4796 33.211 20.6322 33.3235 20.7447C33.436 20.8573 33.5886 20.9205 33.7478 20.9205H34.4598C34.3115 22.7508 33.5164 24.4685 32.2169 25.7658C30.9173 27.0631 29.1983 27.8554 27.3678 28.0005Z" fill="#1E4B8A"/>
<path d="M30.0637 21.7205L27.5477 20.1205L30.1597 14.9205C30.2076 14.7818 30.203 14.6304 30.1467 14.4948C30.0905 14.3593 29.9865 14.249 29.8544 14.185C29.7224 14.1209 29.5714 14.1075 29.4302 14.1472C29.2889 14.1869 29.1671 14.2771 29.0877 14.4005L26.2317 20.0525C26.1647 20.1852 26.1493 20.338 26.1884 20.4813C26.2276 20.6247 26.3186 20.7484 26.4437 20.8285L29.4157 22.7325C29.5114 22.7932 29.6225 22.8251 29.7357 22.8245C29.8655 22.8251 29.9919 22.7835 30.096 22.7062C30.2001 22.6288 30.2764 22.5198 30.3133 22.3954C30.3503 22.2711 30.3459 22.1381 30.3009 22.0164C30.2559 21.8947 30.1727 21.7909 30.0637 21.7205ZM8.99173 22.0565C8.99173 21.8974 8.92852 21.7448 8.816 21.6323C8.70348 21.5198 8.55086 21.4565 8.39173 21.4565H2.02773C1.8686 21.4565 1.71599 21.5198 1.60347 21.6323C1.49095 21.7448 1.42773 21.8974 1.42773 22.0565C1.42773 22.2157 1.49095 22.3683 1.60347 22.4808C1.71599 22.5933 1.8686 22.6565 2.02773 22.6565H8.39973C8.55747 22.6544 8.70804 22.5903 8.81884 22.478C8.92963 22.3657 8.99175 22.2143 8.99173 22.0565ZM4.96773 12.2605H8.39973C8.55886 12.2605 8.71148 12.1973 8.824 12.0848C8.93652 11.9723 8.99973 11.8197 8.99973 11.6605C8.99973 11.5014 8.93652 11.3488 8.824 11.2363C8.71148 11.1238 8.55886 11.0605 8.39973 11.0605H4.96773C4.8086 11.0605 4.65599 11.1238 4.54347 11.2363C4.43095 11.3488 4.36773 11.5014 4.36773 11.6605C4.36773 11.8197 4.43095 11.9723 4.54347 12.0848C4.65599 12.1973 4.8086 12.2605 4.96773 12.2605ZM4.31573 19.2005H12.2237C12.3829 19.2005 12.5355 19.1373 12.648 19.0248C12.7605 18.9123 12.8237 18.7597 12.8237 18.6005C12.8237 18.4414 12.7605 18.2888 12.648 18.1763C12.5355 18.0638 12.3829 18.0005 12.2237 18.0005H4.31573C4.1566 18.0005 4.00399 18.0638 3.89147 18.1763C3.77895 18.2888 3.71573 18.4414 3.71573 18.6005C3.71573 18.7597 3.77895 18.9123 3.89147 19.0248C4.00399 19.1373 4.1566 19.2005 4.31573 19.2005Z" fill="#1E4B8A"/>
</svg>
