<svg width="40" height="40" viewBox="0 0 40 40" fill="none" xmlns="http://www.w3.org/2000/svg">
<path d="M36.043 31.3058V31.8156M36.043 34.8013V35.3111M34.0404 33.3085H34.5502M37.5359 33.3085H38.0457M4.46555 1.81152V2.32129M4.46555 5.30699V5.81676M2.46289 3.8141H2.97266M5.95836 3.8141H6.46812" stroke="#1E4B8A" stroke-miterlimit="10" stroke-linecap="round" stroke-linejoin="round"/>
<path d="M30.3649 38.3168C30.7682 38.3168 31.0951 37.9899 31.0951 37.5866C31.0951 37.1833 30.7682 36.8564 30.3649 36.8564C29.9617 36.8564 29.6348 37.1833 29.6348 37.5866C29.6348 37.9899 29.9617 38.3168 30.3649 38.3168Z" fill="#1E4B8A"/>
<path d="M2.48797 10.1214C2.89122 10.1214 3.21812 9.79454 3.21812 9.39129C3.21812 8.98803 2.89122 8.66113 2.48797 8.66113C2.08471 8.66113 1.75781 8.98803 1.75781 9.39129C1.75781 9.79454 2.08471 10.1214 2.48797 10.1214Z" fill="#1E4B8A"/>
<path d="M37.4098 27.598C37.8131 27.598 38.14 27.2711 38.14 26.8678C38.14 26.4646 37.8131 26.1377 37.4098 26.1377C37.0066 26.1377 36.6797 26.4646 36.6797 26.8678C36.6797 27.2711 37.0066 27.598 37.4098 27.598Z" fill="#1E4B8A"/>
<path d="M28.6116 33.9253L21.4744 37.9486C21.1634 38.1239 20.8124 38.2161 20.4554 38.2161C20.0983 38.2161 19.7473 38.1239 19.4363 37.9486L12.2991 33.9253C8.9268 31.8131 6.87891 28.114 6.87891 24.1348V8.23152C15.7688 6.27637 20.4554 4.55957 20.4554 4.55957C20.4554 4.55957 25.6251 6.27629 34.0319 8.23152V24.1348C34.0318 28.1139 31.9839 31.8131 28.6116 33.9253Z" stroke="#1E4B8A" stroke-miterlimit="10" stroke-linecap="round" stroke-linejoin="round"/>
<path d="M9.7168 23.415V10.6726C16.7483 9.10602 20.4551 7.73047 20.4551 7.73047C20.4551 7.73047 21.7941 8.18086 24.1855 8.85977M31.1934 19.8384V23.415C31.1934 26.6033 29.5736 29.5672 26.9062 31.2596L21.2611 34.4834C21.0157 34.6238 20.7378 34.6976 20.4551 34.6976C20.1723 34.6976 19.8945 34.6238 19.6491 34.4834L14.0039 31.2596M27.487 13.5615L17.265 23.7834L15.1706 21.6891L13.4795 23.3802L17.2384 27.139L29.088 15.2893L27.487 13.5615Z" stroke="#1E4B8A" stroke-miterlimit="10" stroke-linecap="round" stroke-linejoin="round"/>
</svg>
