<svg width="40" height="40" viewBox="0 0 40 40" fill="none" xmlns="http://www.w3.org/2000/svg">
<g clip-path="url(#clip0_614_60)">
<path d="M33.3333 30C35.175 30 36.65 28.5083 36.65 26.6667L36.6667 8.33333C36.6667 6.49167 35.175 5 33.3333 5H6.66667C4.825 5 3.33333 6.49167 3.33333 8.33333V26.6667C3.33333 28.5083 4.825 30 6.66667 30H0C0 31.8417 1.49167 33.3333 3.33333 33.3333H36.6667C38.5083 33.3333 40 31.8417 40 30H33.3333ZM6.66667 8.33333H33.3333V26.6667H6.66667V8.33333ZM20 31.6667C19.0833 31.6667 18.3333 30.9167 18.3333 30C18.3333 29.0833 19.0833 28.3333 20 28.3333C20.9167 28.3333 21.6667 29.0833 21.6667 30C21.6667 30.9167 20.9167 31.6667 20 31.6667Z" fill="#1E4B8A"/>
</g>
<defs>
<clipPath id="clip0_614_60">
<rect width="40" height="40" fill="white"/>
</clipPath>
</defs>
</svg>
