<svg width="40" height="40" viewBox="0 0 40 40" fill="none" xmlns="http://www.w3.org/2000/svg">
<path d="M4.25781 8.49609C4.25781 9.60715 5.15852 10.5078 6.26953 10.5078H33.2227C34.3337 10.5078 35.2344 9.60715 35.2344 8.49609C35.2344 7.38504 34.3337 6.48438 33.2227 6.48438H6.26953C5.15852 6.48438 4.25781 7.38504 4.25781 8.49609ZM10.7812 20.0586C10.7812 21.1696 11.682 22.0703 12.793 22.0703H33.2227C34.3337 22.0703 35.2344 21.1696 35.2344 20.0586C35.2344 18.9475 34.3337 18.0469 33.2227 18.0469H12.793C11.682 18.0469 10.7812 18.9475 10.7812 20.0586ZM21.6016 31.582C21.6016 32.693 22.5022 33.5938 23.6133 33.5938H33.2227C34.3337 33.5938 35.2344 32.693 35.2344 31.582C35.2344 30.471 34.3337 29.5703 33.2227 29.5703H23.6133C22.5022 29.5703 21.6016 30.471 21.6016 31.582Z" fill="black"/>
</svg>
