<svg width="40" height="40" viewBox="0 0 40 40" fill="none" xmlns="http://www.w3.org/2000/svg">
<path d="M31.4727 30.4336C31.7422 30.4336 32.0117 30.4453 32.2812 30.418C32.832 30.3633 33.3516 30.2188 33.8398 29.9492C34.7383 29.4531 35.4258 28.5703 35.6875 27.5781C35.8945 26.7812 35.8125 25.8828 35.8125 25.0664C35.8125 23.7969 35.8125 22.5312 35.8125 21.2617C35.8125 20.3984 35.8125 19.5352 35.8125 18.6719C35.8125 16.8906 34.5859 15.2305 32.8047 14.8633C32.4102 14.7812 32.0195 14.7734 31.6172 14.7734C31.1914 14.7734 30.7578 14.8125 30.3516 14.9414C29.375 15.2539 28.5078 15.9531 28.0586 16.8828C27.7734 17.4688 27.6484 18.082 27.6484 18.7266C27.6484 19.0703 27.6484 19.418 27.6484 19.7617C27.6484 20.9961 27.6484 22.2344 27.6484 23.4687C27.6484 24.4453 27.6484 25.418 27.6484 26.3945C27.6484 26.9023 27.6953 27.418 27.8789 27.8945C28.2461 28.8477 28.9492 29.668 29.8984 30.082C30.3984 30.3047 30.918 30.4297 31.4727 30.4336C31.8828 30.4375 32.2734 30.0703 32.2539 29.6523C32.2344 29.2266 31.9102 28.875 31.4727 28.8711C31.3633 28.8711 31.2578 28.8633 31.1484 28.8555C30.9609 28.8398 31.3281 28.8945 31.1445 28.8516C31.0937 28.8398 31.043 28.832 30.9883 28.8203C30.8867 28.7969 30.7852 28.7656 30.6875 28.7344C30.668 28.7266 30.5508 28.6992 30.543 28.6797C30.6484 28.7266 30.6641 28.7305 30.5859 28.6953C30.5547 28.6797 30.5234 28.6641 30.4922 28.6484C30.4023 28.6016 30.3125 28.5508 30.2266 28.4961C30.1836 28.4687 30.1406 28.4375 30.1016 28.4102C29.9531 28.3125 30.2305 28.5234 30.0977 28.4102C29.9414 28.2773 29.8008 28.1328 29.668 27.9805C29.5508 27.8477 29.7656 28.125 29.668 27.9766C29.6406 27.9336 29.6094 27.8945 29.582 27.8516C29.5273 27.7656 29.4766 27.6758 29.4297 27.5859C29.4219 27.5703 29.3555 27.4609 29.3633 27.4453C29.375 27.4766 29.3906 27.5078 29.4023 27.5352C29.3906 27.5039 29.3789 27.4727 29.3633 27.4375C29.3203 27.3242 29.2852 27.207 29.2578 27.0859C29.2461 27.0352 29.2383 26.9844 29.2266 26.9297C29.1875 26.7539 29.2383 27.0703 29.2266 26.9531C29.2187 26.8555 29.207 26.7578 29.207 26.6563C29.207 26.625 29.207 26.5977 29.207 26.5664C29.207 25.8008 29.207 25.0352 29.207 24.2695C29.207 22.3789 29.1914 20.4922 29.207 18.6016C29.207 18.5469 29.207 18.4922 29.2109 18.4375C29.2148 18.3945 29.2187 18.3477 29.2227 18.3047C29.2383 18.1406 29.207 18.3203 29.2187 18.3281C29.1914 18.3125 29.3477 17.6992 29.4023 17.6758C29.3906 17.707 29.375 17.7383 29.3633 17.7656C29.3789 17.7344 29.3906 17.7031 29.4062 17.6719C29.4297 17.625 29.4531 17.5781 29.4766 17.5352C29.5273 17.4453 29.5781 17.3594 29.6367 17.2734C29.6484 17.2578 29.6562 17.2461 29.668 17.2305C29.7187 17.1641 29.707 17.1758 29.6367 17.2656C29.6367 17.2422 29.7187 17.168 29.7344 17.1484C29.8086 17.0664 29.8828 16.9883 29.9648 16.9102C29.9961 16.8828 30.0273 16.8516 30.0586 16.8242C30.0703 16.8125 30.0859 16.8008 30.0977 16.793C30.1641 16.7422 30.1523 16.75 30.0586 16.8203C30.0586 16.7812 30.2812 16.6719 30.3125 16.6523C30.4023 16.6016 30.4922 16.5547 30.5859 16.5078C30.7461 16.4258 30.418 16.5664 30.5898 16.5078C30.6562 16.4844 30.7187 16.4609 30.7852 16.4414C30.8867 16.4102 30.9883 16.3867 31.0898 16.3633C31.1055 16.3594 31.125 16.3555 31.1406 16.3555C31.2266 16.3398 31.2109 16.3437 31.0898 16.3594C31.1133 16.3398 31.2187 16.3477 31.25 16.3437C31.3828 16.3359 31.5156 16.3359 31.6445 16.3359C31.7539 16.3359 31.8633 16.3359 31.9766 16.3359C32.0859 16.3359 32.1914 16.3437 32.3008 16.3516C32.4883 16.3672 32.1211 16.3125 32.3047 16.3555C32.375 16.3711 32.4414 16.3828 32.5117 16.3984C32.6133 16.4258 32.7109 16.4531 32.8086 16.4922C32.8242 16.4961 32.9023 16.5195 32.9062 16.5312C32.875 16.5195 32.8437 16.5039 32.8164 16.4922C32.8477 16.5078 32.8789 16.5195 32.9102 16.5352C33.0039 16.5781 33.0937 16.6289 33.1797 16.6836C33.2227 16.7109 33.2656 16.7383 33.3086 16.7656C33.3359 16.7852 33.3633 16.8047 33.3906 16.8242C33.3008 16.7539 33.2891 16.7422 33.3516 16.7969C33.5078 16.9336 33.6484 17.0742 33.7812 17.2266C33.8984 17.3594 33.6836 17.082 33.7812 17.2305C33.8086 17.2734 33.8398 17.3125 33.8672 17.3555C33.9219 17.4414 33.9727 17.5312 34.0195 17.6211C34.0273 17.6367 34.0937 17.7461 34.0859 17.7617C34.0742 17.7305 34.0586 17.6992 34.0469 17.6719C34.0586 17.7031 34.0703 17.7344 34.0859 17.7695C34.1211 17.8672 34.1523 17.9687 34.1797 18.0664C34.1914 18.1172 34.2031 18.168 34.2148 18.2187C34.2188 18.2344 34.2227 18.2539 34.2227 18.2695C34.2383 18.3555 34.2344 18.3398 34.2187 18.2187C34.2695 18.2773 34.2422 18.5195 34.2422 18.5937C34.2578 20.4492 34.2422 22.3008 34.2422 24.1563C34.2422 24.9531 34.2422 25.7461 34.2422 26.543C34.2422 26.5586 34.2422 26.5781 34.2422 26.5937C34.2422 26.6328 34.2422 26.668 34.2422 26.707C34.2422 26.7617 34.2383 26.8164 34.2305 26.8672C34.2266 26.9023 34.2227 26.9375 34.2187 26.9727C34.2344 26.8516 34.2383 26.8359 34.2227 26.9219C34.1992 27.0234 34.1797 27.1289 34.1523 27.2305C34.1367 27.2773 34.0937 27.5039 34.0508 27.5234C34.0625 27.4922 34.0781 27.4609 34.0898 27.4336C34.0742 27.4648 34.0625 27.4961 34.0469 27.5273C34.0312 27.5586 34.0156 27.5898 34 27.6172C33.9453 27.7227 33.8828 27.8242 33.8125 27.9219C33.8008 27.9375 33.793 27.9492 33.7812 27.9648C33.7305 28.0313 33.7422 28.0195 33.8125 27.9297C33.8125 27.9531 33.7305 28.0273 33.7148 28.0469C33.6484 28.125 33.5781 28.1953 33.5039 28.2656C33.4648 28.3008 33.4297 28.3359 33.3906 28.3672C33.3789 28.3789 33.3633 28.3906 33.3516 28.3984C33.2852 28.4492 33.2969 28.4414 33.3906 28.3711C33.3906 28.4141 33.1328 28.543 33.0898 28.5664C33.0547 28.5859 32.8437 28.7227 32.8164 28.707C32.8242 28.7109 32.9727 28.6484 32.8594 28.6875C32.8086 28.7031 32.7617 28.7227 32.7109 28.7383C32.6133 28.7695 32.5117 28.7969 32.4062 28.8203C32.3945 28.8242 32.2539 28.8555 32.25 28.8477C32.3711 28.832 32.3867 28.832 32.3008 28.8398C32.2656 28.8437 32.2305 28.8477 32.1953 28.8477C31.9531 28.8633 31.7109 28.8555 31.4687 28.8555C31.0586 28.8555 30.668 29.2148 30.6875 29.6367C30.707 30.0742 31.0312 30.4336 31.4727 30.4336ZM8.01953 30.4336C8.28906 30.4336 8.55859 30.4453 8.82812 30.418C9.37891 30.3633 9.89844 30.2188 10.3867 29.9492C11.2852 29.4531 11.9727 28.5703 12.2344 27.5781C12.4414 26.7812 12.3594 25.8828 12.3594 25.0664C12.3594 23.7969 12.3594 22.5312 12.3594 21.2617C12.3594 20.3984 12.3594 19.5352 12.3594 18.6719C12.3594 16.8906 11.1328 15.2305 9.35156 14.8633C8.95703 14.7812 8.56641 14.7734 8.16406 14.7734C7.73828 14.7734 7.30469 14.8125 6.89844 14.9414C5.92188 15.2539 5.05469 15.9531 4.60547 16.8828C4.32031 17.4688 4.19531 18.082 4.19531 18.7266C4.19531 19.0703 4.19531 19.418 4.19531 19.7617C4.19531 20.9961 4.19531 22.2344 4.19531 23.4687C4.19531 24.4453 4.19531 25.418 4.19531 26.3945C4.19531 26.9023 4.24219 27.418 4.42578 27.8945C4.79297 28.8477 5.49609 29.668 6.44531 30.082C6.94531 30.3047 7.46484 30.4297 8.01953 30.4336C8.42969 30.4375 8.82031 30.0703 8.80078 29.6523C8.78125 29.2266 8.45703 28.875 8.01953 28.8711C7.91016 28.8711 7.80469 28.8633 7.69531 28.8555C7.50781 28.8398 7.875 28.8945 7.69141 28.8516C7.64062 28.8398 7.58984 28.832 7.53516 28.8203C7.43359 28.7969 7.33203 28.7656 7.23437 28.7344C7.21484 28.7266 7.09766 28.6992 7.08984 28.6797C7.19531 28.7266 7.21094 28.7305 7.13281 28.6953C7.10156 28.6797 7.07031 28.6641 7.03906 28.6484C6.94922 28.6016 6.85937 28.5508 6.77344 28.4961C6.73047 28.4687 6.6875 28.4375 6.64844 28.4102C6.5 28.3125 6.77734 28.5234 6.64453 28.4102C6.48828 28.2773 6.34766 28.1328 6.21484 27.9805C6.09766 27.8477 6.3125 28.125 6.21484 27.9766C6.1875 27.9336 6.15625 27.8945 6.12891 27.8516C6.07422 27.7656 6.02344 27.6758 5.97656 27.5859C5.96875 27.5703 5.90234 27.4609 5.91016 27.4453C5.92188 27.4766 5.9375 27.5078 5.94922 27.5352C5.9375 27.5039 5.92578 27.4727 5.91016 27.4375C5.86719 27.3242 5.83203 27.207 5.80469 27.0859C5.79297 27.0352 5.78516 26.9844 5.77344 26.9297C5.73438 26.7539 5.78516 27.0703 5.77344 26.9531C5.76563 26.8555 5.75391 26.7578 5.75391 26.6563C5.75391 26.625 5.75391 26.5977 5.75391 26.5664C5.75391 25.8008 5.75391 25.0352 5.75391 24.2695C5.75391 22.3789 5.73828 20.4922 5.75391 18.6016C5.75391 18.5469 5.75391 18.4922 5.75781 18.4375C5.76172 18.3945 5.76562 18.3477 5.76953 18.3047C5.78516 18.1406 5.75391 18.3203 5.76563 18.3281C5.73828 18.3125 5.89453 17.6992 5.94922 17.6758C5.9375 17.707 5.92188 17.7383 5.91016 17.7656C5.92578 17.7344 5.9375 17.7031 5.95312 17.6719C5.97656 17.625 6 17.5781 6.02344 17.5352C6.07422 17.4453 6.125 17.3594 6.18359 17.2734C6.19531 17.2578 6.20313 17.2461 6.21484 17.2305C6.26563 17.1641 6.25391 17.1758 6.18359 17.2656C6.18359 17.2422 6.26563 17.168 6.28125 17.1484C6.35547 17.0664 6.42969 16.9883 6.51172 16.9102C6.54297 16.8828 6.57422 16.8516 6.60547 16.8242C6.61719 16.8125 6.63281 16.8008 6.64453 16.793C6.71094 16.7422 6.69922 16.75 6.60547 16.8203C6.60547 16.7812 6.82813 16.6719 6.85938 16.6523C6.94922 16.6016 7.03906 16.5547 7.13281 16.5078C7.29297 16.4258 6.96484 16.5664 7.13672 16.5078C7.20312 16.4844 7.26562 16.4609 7.33203 16.4414C7.43359 16.4102 7.53516 16.3867 7.63672 16.3633C7.65234 16.3594 7.67188 16.3555 7.6875 16.3555C7.77344 16.3398 7.75781 16.3437 7.63672 16.3594C7.66016 16.3398 7.76563 16.3477 7.79688 16.3437C7.92969 16.3359 8.0625 16.3359 8.19141 16.3359C8.30078 16.3359 8.41016 16.3359 8.52344 16.3359C8.63281 16.3359 8.73828 16.3437 8.84766 16.3516C9.03516 16.3672 8.66797 16.3125 8.85156 16.3555C8.92188 16.3711 8.98828 16.3828 9.05859 16.3984C9.16016 16.4258 9.25781 16.4531 9.35547 16.4922C9.37109 16.4961 9.44922 16.5195 9.45313 16.5312C9.42188 16.5195 9.39062 16.5039 9.36328 16.4922C9.39453 16.5078 9.42578 16.5195 9.45703 16.5352C9.55078 16.5781 9.64063 16.6289 9.72656 16.6836C9.76953 16.7109 9.8125 16.7383 9.85547 16.7656C9.88281 16.7852 9.91016 16.8047 9.9375 16.8242C9.84766 16.7539 9.83594 16.7422 9.89844 16.7969C10.0547 16.9336 10.1953 17.0742 10.3281 17.2266C10.4453 17.3594 10.2305 17.082 10.3281 17.2305C10.3555 17.2734 10.3867 17.3125 10.4141 17.3555C10.4688 17.4414 10.5195 17.5312 10.5664 17.6211C10.5742 17.6367 10.6406 17.7461 10.6328 17.7617C10.6211 17.7305 10.6055 17.6992 10.5938 17.6719C10.6055 17.7031 10.6172 17.7344 10.6328 17.7695C10.668 17.8672 10.6992 17.9687 10.7266 18.0664C10.7383 18.1172 10.75 18.168 10.7617 18.2187C10.7656 18.2344 10.7695 18.2539 10.7695 18.2695C10.7852 18.3555 10.7813 18.3398 10.7656 18.2187C10.8164 18.2773 10.7891 18.5195 10.7891 18.5937C10.8047 20.4492 10.7891 22.3008 10.7891 24.1563C10.7891 24.9531 10.7891 25.7461 10.7891 26.543C10.7891 26.5586 10.7891 26.5781 10.7891 26.5937C10.7891 26.6328 10.7891 26.668 10.7891 26.707C10.7891 26.7617 10.7852 26.8164 10.7773 26.8672C10.7734 26.9023 10.7695 26.9375 10.7656 26.9727C10.7813 26.8516 10.7852 26.8359 10.7695 26.9219C10.7461 27.0234 10.7266 27.1289 10.6992 27.2305C10.6836 27.2773 10.6406 27.5039 10.5977 27.5234C10.6094 27.4922 10.625 27.4609 10.6367 27.4336C10.6211 27.4648 10.6094 27.4961 10.5938 27.5273C10.5781 27.5586 10.5625 27.5898 10.5469 27.6172C10.4922 27.7227 10.4297 27.8242 10.3594 27.9219C10.3477 27.9375 10.3398 27.9492 10.3281 27.9648C10.2773 28.0313 10.2891 28.0195 10.3594 27.9297C10.3594 27.9531 10.2773 28.0273 10.2617 28.0469C10.1953 28.125 10.125 28.1953 10.0508 28.2656C10.0117 28.3008 9.97656 28.3359 9.9375 28.3672C9.92578 28.3789 9.91016 28.3906 9.89844 28.3984C9.83203 28.4492 9.84375 28.4414 9.9375 28.3711C9.9375 28.4141 9.67969 28.543 9.63672 28.5664C9.60156 28.5859 9.39062 28.7227 9.36328 28.707C9.37109 28.7109 9.51953 28.6484 9.40625 28.6875C9.35547 28.7031 9.30859 28.7227 9.25781 28.7383C9.16016 28.7695 9.05859 28.7969 8.95312 28.8203C8.94141 28.8242 8.80078 28.8555 8.79687 28.8477C8.91797 28.832 8.93359 28.832 8.84766 28.8398C8.8125 28.8437 8.77734 28.8477 8.74219 28.8477C8.5 28.8633 8.25781 28.8555 8.01562 28.8555C7.60547 28.8555 7.21484 29.2148 7.23437 29.6367C7.25781 30.0742 7.58203 30.4336 8.01953 30.4336Z" fill="#1E4B8A"/>
<path d="M5.75391 26.3515C5.75391 25.7578 5.75391 25.1679 5.75391 24.5742C5.75391 23.3398 5.75391 22.1015 5.75391 20.8672C5.75391 19.7734 5.75391 18.6797 5.75391 17.5859C5.75391 17.3437 5.75391 17.1015 5.75391 16.8593C5.75391 16.6289 5.75781 16.3945 5.76953 16.164C5.78125 15.9297 5.79687 15.6914 5.81641 15.457C5.82812 15.3476 5.83594 15.2422 5.84766 15.1328C5.85547 15.0781 5.85937 15.0273 5.86719 14.9726C5.87109 14.9453 5.875 14.9179 5.87891 14.8906C5.89063 14.7812 5.85547 15.0468 5.87109 14.9375C6.00391 14.0508 6.19922 13.1797 6.48047 12.332C6.55078 12.125 6.62109 11.9179 6.69922 11.7148C6.73828 11.6172 6.77344 11.5195 6.8125 11.4218C6.83203 11.375 6.85156 11.3242 6.87109 11.2773C6.90625 11.1953 6.84375 11.3437 6.84375 11.3437C6.85938 11.3125 6.87109 11.2812 6.88672 11.2461C7.0625 10.8398 7.25781 10.4453 7.46875 10.0547C7.67578 9.67575 7.89844 9.30857 8.13672 8.94919C8.25391 8.7695 8.37891 8.59372 8.50391 8.41794C8.56641 8.33591 8.625 8.24997 8.6875 8.16794C8.70312 8.14841 8.71875 8.12888 8.73438 8.10544C8.78516 8.03513 8.69141 8.16403 8.69141 8.16013C8.71484 8.10935 8.76953 8.06247 8.80469 8.0195C9.34375 7.34372 9.94531 6.71091 10.5938 6.13669C10.7539 5.99607 10.918 5.85544 11.0859 5.71872C11.1641 5.65622 11.2539 5.55466 11.3477 5.51169C11.3477 5.51169 11.2227 5.60544 11.293 5.55466C11.3125 5.53903 11.332 5.52341 11.3555 5.50778C11.4023 5.47263 11.4531 5.43357 11.5 5.39841C11.8477 5.1445 12.2031 4.90232 12.5703 4.67575C12.9453 4.44528 13.332 4.23044 13.7266 4.03513C13.9219 3.93747 14.1172 3.84372 14.3125 3.75778C14.3594 3.73825 14.4063 3.71482 14.457 3.69528C14.4805 3.68357 14.5039 3.67575 14.5273 3.66403C14.5273 3.66403 14.3789 3.72653 14.4609 3.69138C14.5664 3.64841 14.6719 3.60544 14.7773 3.56247C15.6055 3.23825 16.4609 2.98825 17.332 2.82028C17.5508 2.77732 17.7695 2.73825 17.9922 2.707C18.0469 2.69919 18.0977 2.69528 18.1523 2.68357C18.1523 2.68357 17.9883 2.7031 18.0781 2.69528C18.1055 2.69138 18.1328 2.68747 18.1602 2.68357C18.2773 2.66794 18.3945 2.65622 18.5078 2.6445C18.9687 2.59763 19.4336 2.57419 19.8984 2.57028C20.3359 2.56638 20.7734 2.582 21.2109 2.61716C21.4375 2.63669 21.6602 2.66013 21.8828 2.68747C21.9102 2.69138 21.9375 2.69528 21.9648 2.69919C21.9648 2.69919 21.8008 2.67575 21.8906 2.69138C21.9453 2.69919 21.9961 2.707 22.0508 2.71482C22.1758 2.73435 22.2969 2.75388 22.4219 2.77732C23.2891 2.92966 24.1445 3.16403 24.9688 3.46872C25.0664 3.50388 25.1641 3.54294 25.2617 3.582C25.3203 3.60544 25.375 3.62888 25.4297 3.64841C25.4609 3.66013 25.6328 3.73825 25.5273 3.68747C25.4219 3.63669 25.5742 3.707 25.6016 3.71872C25.6484 3.73825 25.6953 3.76169 25.7461 3.78122C25.8477 3.8281 25.9492 3.87497 26.0547 3.92185C26.4453 4.10935 26.8281 4.31247 27.1992 4.53122C27.5781 4.75388 27.9453 4.99216 28.3047 5.24997C28.3906 5.30857 28.4727 5.37107 28.5547 5.43357C28.5977 5.46482 28.6367 5.49607 28.6797 5.52732C28.6992 5.54294 28.7227 5.55857 28.7422 5.57419C28.7148 5.54685 28.625 5.48435 28.707 5.54685C28.875 5.67966 29.043 5.81638 29.207 5.9531C29.8672 6.5156 30.4766 7.13669 31.0313 7.80466C31.0977 7.88278 31.1602 7.96482 31.2266 8.04294C31.2578 8.082 31.3008 8.12107 31.3203 8.16403C31.3203 8.16403 31.2266 8.03903 31.2773 8.10935C31.2969 8.13669 31.3203 8.16403 31.3398 8.19138C31.4687 8.36325 31.5937 8.53903 31.7187 8.71482C31.9687 9.0781 32.2031 9.44919 32.418 9.832C32.6328 10.207 32.8281 10.5937 33.0117 10.9883C33.0547 11.082 33.0977 11.1797 33.1406 11.2734C33.1523 11.2968 33.1602 11.3203 33.1719 11.3437C33.1719 11.3437 33.1094 11.1953 33.1445 11.2773C33.168 11.332 33.1914 11.3906 33.2148 11.4453C33.3008 11.6562 33.3789 11.8672 33.4531 12.082C33.75 12.9218 33.9688 13.7929 34.1094 14.6718C34.1172 14.7265 34.125 14.7773 34.1328 14.832C34.1367 14.8633 34.1641 15.0351 34.1445 14.914C34.125 14.7929 34.1523 14.9687 34.1563 14.9961C34.1641 15.0586 34.1719 15.1211 34.1797 15.1836C34.2031 15.4101 34.2227 15.6328 34.2383 15.8593C34.2578 16.1836 34.2695 16.5039 34.2695 16.8281C34.2695 17 34.2695 17.1758 34.2695 17.3476C34.2695 18.2851 34.2695 19.2187 34.2695 20.1562C34.2695 21.4414 34.2695 22.7265 34.2695 24.0117C34.2695 25.1211 34.2695 26.2265 34.2695 27.3359C34.2695 27.914 34.293 28.4961 34.2539 29.0742C34.2461 29.1836 34.2383 29.289 34.2266 29.3984C34.2227 29.4336 34.1875 29.5976 34.2187 29.4804C34.25 29.3633 34.207 29.5508 34.1992 29.5898C34.1641 29.8086 34.1172 30.0234 34.0586 30.2383C34 30.457 33.9297 30.6758 33.8516 30.8867C33.832 30.9375 33.8164 30.9843 33.7969 31.0312C33.7891 31.0547 33.7734 31.0781 33.7695 31.1054C33.7695 31.1054 33.832 30.9609 33.7969 31.039C33.75 31.1406 33.707 31.2461 33.6562 31.3437C33.4687 31.7304 33.2422 32.0976 32.9883 32.4453C32.9727 32.4648 32.957 32.4843 32.9414 32.5078C32.8906 32.5781 32.9883 32.4492 32.9844 32.4531C32.9648 32.4961 32.918 32.539 32.8867 32.5742C32.8125 32.6679 32.7344 32.7578 32.6523 32.8476C32.5078 33.0078 32.3594 33.1601 32.2031 33.3047C32.0625 33.4375 31.8906 33.6367 31.7148 33.7226C31.7109 33.7226 31.8437 33.6289 31.7695 33.6797C31.75 33.6953 31.7266 33.7109 31.707 33.7265C31.6641 33.7578 31.625 33.7851 31.582 33.8164C31.4922 33.8789 31.3984 33.9414 31.3047 34.0039C31.125 34.1211 30.9375 34.2265 30.7461 34.3242C30.6445 34.375 30.5469 34.4258 30.4414 34.4726C30.3945 34.4961 30.3477 34.5156 30.3008 34.5351C30.2227 34.5703 30.3672 34.5078 30.3672 34.5078C30.3359 34.5156 30.3008 34.5351 30.2695 34.5468C29.8633 34.707 29.4375 34.8281 29.0078 34.914C28.9062 34.9336 28.793 34.9375 28.6914 34.9687C28.6914 34.9687 28.8555 34.9492 28.7656 34.957C28.7383 34.9609 28.7109 34.9648 28.6836 34.9648C28.6211 34.9726 28.5586 34.9765 28.4961 34.9843C28.2891 35.0039 28.0781 35.0117 27.8672 35.0117C26.8867 35.0156 25.9023 35.0117 24.9219 35.0117C24.5977 35.0117 24.2773 35.0117 23.9531 35.0117C23.543 35.0117 23.1523 35.3711 23.1719 35.7929C23.1914 36.2148 23.5156 36.5742 23.9531 36.5742C24.9414 36.5742 25.9297 36.5742 26.918 36.5742C27.2891 36.5742 27.6641 36.582 28.0352 36.5742C28.9883 36.5508 29.9453 36.3633 30.8281 35.9961C32.6055 35.2617 34.1133 33.9179 34.9766 32.1875C35.5742 30.9883 35.8281 29.7109 35.8281 28.3789C35.8281 27.5547 35.8281 26.7304 35.8281 25.9062C35.8281 24.625 35.8281 23.3437 35.8281 22.0664C35.8281 20.8711 35.8281 19.6758 35.8281 18.4843C35.8281 17.9375 35.8281 17.3867 35.8281 16.8398C35.8242 15.0312 35.5195 13.2109 34.8984 11.5117C34.2539 9.74606 33.3125 8.12107 32.1055 6.67966C30.9492 5.29294 29.5352 4.10544 27.9766 3.19138C26.3828 2.25778 24.6133 1.59372 22.793 1.27732C20.8711 0.941378 18.9219 0.957003 17.0078 1.32028C15.2031 1.66403 13.4531 2.34763 11.8828 3.29685C10.3359 4.23435 8.9375 5.43357 7.80078 6.83982C6.60938 8.30466 5.67969 9.94919 5.05859 11.7383C4.48828 13.3789 4.21094 15.1211 4.20703 16.8554C4.20703 17.5508 4.20703 18.2422 4.20703 18.9375C4.20703 20.2187 4.20703 21.5 4.20703 22.7812C4.20703 23.8125 4.20703 24.8476 4.20703 25.8789C4.20703 26.039 4.20703 26.2031 4.20703 26.3633C4.20703 26.7734 4.56641 27.164 4.98828 27.1445C5.39453 27.1133 5.75391 26.789 5.75391 26.3515Z" fill="#1E4B8A"/>
<path d="M23.157 35.7891C23.157 35.8437 23.157 35.8984 23.1531 35.9531C23.1531 35.9727 23.1492 35.9883 23.1492 36.0078C23.1414 36.0937 23.1414 36.0781 23.157 35.957C23.1726 35.9648 23.1101 36.1914 23.1023 36.2148C23.0945 36.2383 23.0437 36.457 23.0203 36.4609C23.032 36.4297 23.0476 36.3984 23.0594 36.3711C23.0437 36.4023 23.032 36.4336 23.0164 36.4648C22.993 36.5117 22.9695 36.5547 22.9422 36.6016C22.9148 36.6445 22.8914 36.6875 22.8601 36.7305C22.8523 36.7461 22.8406 36.7578 22.8328 36.7734C22.7937 36.8281 22.7937 36.8281 22.8328 36.7773C22.8445 36.7656 22.8523 36.75 22.864 36.7383C22.8445 36.7656 22.8211 36.7891 22.7976 36.8164C22.7625 36.8555 22.7312 36.8906 22.6961 36.9297C22.6375 36.9922 22.5711 37.0469 22.5086 37.1016C22.3836 37.2109 22.6219 37.0391 22.5242 37.0859C22.4734 37.1133 22.4265 37.1523 22.3758 37.1836C22.3015 37.2266 22.2273 37.2656 22.1492 37.3047C21.989 37.3867 22.3172 37.25 22.1453 37.3047C22.1023 37.3164 22.0633 37.332 22.0242 37.3477C21.9305 37.375 21.8406 37.3945 21.743 37.4141C21.5906 37.4492 21.7937 37.4062 21.7937 37.4102C21.7859 37.4297 21.6023 37.4258 21.5789 37.4258C21.4617 37.4297 21.3484 37.4258 21.2312 37.4258C20.7195 37.4258 20.2078 37.4258 19.7 37.4258C19.4851 37.4258 19.2703 37.4258 19.0594 37.4258C19.0125 37.4258 18.9617 37.4258 18.9148 37.4258C18.8875 37.4258 18.864 37.4258 18.8406 37.4258C18.7859 37.4258 18.7351 37.418 18.6805 37.418C18.6219 37.4102 18.6375 37.4141 18.7312 37.4258C18.6922 37.418 18.6492 37.4102 18.6101 37.4023C18.5086 37.3828 18.4148 37.3516 18.3133 37.3203C18.1219 37.2617 18.4539 37.3984 18.2742 37.3086C18.2312 37.2852 18.1844 37.2656 18.1414 37.2383C18.0515 37.1875 17.9383 37.1328 17.864 37.0586C17.9851 37.1758 17.907 37.0937 17.8836 37.0703C17.825 37.0156 17.7664 36.9648 17.7117 36.9062C17.6765 36.8711 17.6453 36.832 17.6101 36.793C17.5281 36.707 17.7078 36.9453 17.6023 36.7852C17.5476 36.6992 17.493 36.6172 17.4461 36.5273C17.4187 36.4766 17.3875 36.4219 17.368 36.3633C17.4344 36.5508 17.3719 36.3516 17.3601 36.3242C17.325 36.2148 17.2703 36.0781 17.2742 35.9648C17.2703 36.1328 17.282 36.0273 17.2781 35.9844C17.2781 35.9219 17.2703 35.8555 17.2703 35.793C17.2703 35.7656 17.2625 35.5352 17.2859 35.5234C17.282 35.5586 17.2781 35.5898 17.2703 35.625C17.2742 35.5898 17.282 35.5547 17.2898 35.5195C17.2976 35.4844 17.3055 35.4492 17.3133 35.418C17.325 35.3672 17.3406 35.3164 17.3562 35.2695C17.364 35.2461 17.4187 35.043 17.3875 35.168C17.3601 35.2852 17.3992 35.1445 17.4109 35.1211C17.4344 35.0742 17.4578 35.0312 17.4851 34.9844C17.5008 34.9531 17.6023 34.7656 17.6258 34.7695C17.6062 34.7969 17.5867 34.8203 17.5672 34.8477C17.5867 34.8203 17.6101 34.7969 17.6336 34.7695C17.657 34.7422 17.6766 34.7187 17.7 34.6953C17.7703 34.6211 17.8445 34.5547 17.9226 34.4883C18.0555 34.3711 17.7781 34.582 17.9265 34.4883C17.9695 34.4609 18.0125 34.4297 18.0555 34.4062C18.1297 34.3633 18.2039 34.3242 18.282 34.2852C18.4305 34.207 18.157 34.3164 18.2625 34.293C18.3015 34.2852 18.3445 34.2617 18.3836 34.25C18.4851 34.2187 18.5867 34.1953 18.6883 34.1758C18.868 34.1367 18.5047 34.1875 18.6922 34.1758C18.7273 34.1719 18.7625 34.1719 18.7976 34.168C18.8367 34.168 18.8797 34.1641 18.9187 34.1641C18.9656 34.1641 19.0164 34.1641 19.0633 34.1641C19.5594 34.1641 20.0515 34.1641 20.5476 34.1641C20.8015 34.1641 21.0555 34.1641 21.3133 34.1641C21.3797 34.1641 21.4422 34.1641 21.5086 34.1641C21.5281 34.1641 21.5476 34.1641 21.5672 34.1641C21.6219 34.1641 21.6726 34.168 21.7273 34.1719C21.8172 34.1797 21.8094 34.1797 21.7078 34.168C21.7469 34.1758 21.7898 34.1836 21.8289 34.1914C21.9305 34.2148 22.0984 34.2305 22.1805 34.2969C22.075 34.2148 22.1101 34.2617 22.1609 34.2891C22.2312 34.3242 22.3055 34.3594 22.3719 34.4023C22.4148 34.4297 22.4578 34.457 22.4969 34.4844C22.6609 34.5977 22.4422 34.4219 22.5515 34.5273C22.6375 34.6094 22.7234 34.6953 22.8055 34.7812C22.9422 34.9219 22.7234 34.6484 22.8289 34.8125C22.8601 34.8633 22.8953 34.9102 22.9266 34.9648C22.9578 35.0156 22.9851 35.0703 23.0125 35.125C23.0398 35.1758 23.1297 35.2891 23.032 35.1602C23.0945 35.2422 23.114 35.4102 23.1375 35.5117C23.1453 35.5547 23.2117 35.7344 23.1492 35.5508C23.1687 35.6094 23.157 35.7148 23.157 35.7891C23.1609 36.1992 23.5125 36.5898 23.9383 36.5703C24.3562 36.5508 24.7234 36.2266 24.7195 35.7891C24.7039 34.6055 24.0281 33.4414 22.9383 32.9297C22.4812 32.7148 22.0125 32.5977 21.5047 32.5938C21.3367 32.5938 21.1687 32.5938 20.9969 32.5938C20.4187 32.5938 19.8367 32.5938 19.2586 32.5938C18.5867 32.5938 17.95 32.6641 17.3484 32.9961C16.4305 33.5 15.8484 34.4375 15.7273 35.4648C15.5867 36.6523 16.1883 37.8125 17.1726 38.4687C17.8016 38.8867 18.5164 38.9805 19.2469 38.9805C19.8211 38.9805 20.3953 38.9805 20.9695 38.9805C21.6922 38.9805 22.3719 38.9453 23.032 38.6016C24.0672 38.0586 24.7078 36.9453 24.7195 35.7852C24.7234 35.375 24.3562 34.9844 23.9383 35.0039C23.5125 35.0273 23.1609 35.3516 23.157 35.7891Z" fill="#1E4B8A"/>
</svg>
