<svg width="500" height="360" viewBox="0 0 500 360" fill="none" xmlns="http://www.w3.org/2000/svg">
<path d="M175.444 241.092H55.6426V245.76H79.5546V309.529H84.2236V245.76H175.444V241.092Z" fill="#1E4B8A"/>
<path d="M175.444 272.977H122.949V277.645H175.444V272.977Z" fill="#1E4B8A"/>
<path d="M175.444 304.861H122.949V309.529H175.444V304.861Z" fill="#1E4B8A"/>
<path d="M377.235 304.861H324.738V309.529H377.235V304.861Z" fill="#BFD730"/>
<path d="M377.233 272.977H324.738V277.645H377.233V272.977Z" fill="#BFD730"/>
<path d="M242.706 309.528H224.43C205.562 309.528 190.211 294.177 190.211 275.309C190.211 256.441 205.562 241.09 224.43 241.09H242.706V245.758H224.43C208.135 245.758 194.88 259.014 194.88 275.308C194.88 291.603 208.136 304.858 224.43 304.858H242.706V309.528Z" fill="#1E4B8A"/>
<path d="M410.278 309.528C429.146 309.528 444.497 294.177 444.497 275.309C444.497 256.441 429.146 241.09 410.278 241.09H324.738V245.758H410.278C426.573 245.758 439.828 259.014 439.828 275.308C439.828 291.603 426.572 304.858 410.278 304.858H396.67V258.372H392.002V309.527H410.278V309.528Z" fill="#BFD730"/>
<path d="M309.971 314.197L262.143 250.428V309.529H257.475V236.424L305.303 300.193V241.092H309.971V314.197Z" fill="#BFD730"/>
<path d="M212.256 45.2905L199.652 57.8945L224.86 83.1026L237.465 70.4986L212.256 45.2905Z" fill="#253D7D"/>
<path d="M250.07 83.1016H224.862L149.238 158.726L161.842 171.33L237.466 95.7056L287.882 146.122L300.486 133.518L250.07 83.1016Z" fill="#253D7D"/>
<path d="M338.297 120.914L287.881 171.33L250.069 133.518H224.861L174.445 183.934L187.049 196.538L237.465 146.122L275.277 183.934H300.485L350.901 133.518L338.297 120.914Z" fill="#BFD730"/>
<path d="M250.071 108.31L237.467 95.7056L250.071 83.1016L262.675 95.7056L250.071 108.31Z" fill="url(#paint0_linear_360_1581)"/>
<path d="M300.487 183.933L287.883 171.329L300.487 158.725L313.091 171.329L300.487 183.933Z" fill="url(#paint1_linear_360_1581)"/>
<path d="M250.071 158.726L237.467 146.122L250.071 133.518L262.675 146.122L250.071 158.726Z" fill="url(#paint2_linear_360_1581)"/>
<defs>
<linearGradient id="paint0_linear_360_1581" x1="256.373" y1="102.008" x2="243.769" y2="89.4039" gradientUnits="userSpaceOnUse">
<stop stop-color="#253D7D"/>
<stop offset="0.167" stop-color="#253C7B"/>
<stop offset="0.3012" stop-color="#253974"/>
<stop offset="0.424" stop-color="#233468"/>
<stop offset="0.54" stop-color="#202C58"/>
<stop offset="0.6513" stop-color="#192245"/>
<stop offset="0.7589" stop-color="#0F142F"/>
<stop offset="0.8638" stop-color="#000012"/>
<stop offset="0.9638"/>
<stop offset="1"/>
</linearGradient>
<linearGradient id="paint1_linear_360_1581" x1="306.789" y1="165.027" x2="294.185" y2="177.631" gradientUnits="userSpaceOnUse">
<stop stop-color="#BFD730"/>
<stop offset="0.2147" stop-color="#BBD32F"/>
<stop offset="0.3871" stop-color="#B4CB2D"/>
<stop offset="0.5449" stop-color="#AAC02A"/>
<stop offset="0.6939" stop-color="#9BB026"/>
<stop offset="0.8368" stop-color="#869B20"/>
<stop offset="0.9733" stop-color="#6F8217"/>
<stop offset="1" stop-color="#697C15"/>
</linearGradient>
<linearGradient id="paint2_linear_360_1581" x1="256.373" y1="152.424" x2="243.769" y2="139.82" gradientUnits="userSpaceOnUse">
<stop stop-color="#BFD730" stop-opacity="0"/>
<stop offset="0.2147" stop-color="#BBD32F" stop-opacity="0.2147"/>
<stop offset="0.3871" stop-color="#B4CB2D" stop-opacity="0.3871"/>
<stop offset="0.5449" stop-color="#AAC02A" stop-opacity="0.5449"/>
<stop offset="0.6939" stop-color="#9BB026" stop-opacity="0.6939"/>
<stop offset="0.8368" stop-color="#869B20" stop-opacity="0.8368"/>
<stop offset="0.9733" stop-color="#6F8217" stop-opacity="0.9733"/>
<stop offset="1" stop-color="#697C15"/>
</linearGradient>
</defs>
</svg>
