<svg width="569" height="118" viewBox="0 0 569 118" fill="none" xmlns="http://www.w3.org/2000/svg">
<path d="M49.2989 -4.29002e-05L39.4863 9.8125L59.1114 29.4376L68.924 19.625L49.2989 -4.29002e-05Z" fill="white"/>
<path d="M78.7373 29.4363H59.1123L0.237305 88.3113L10.0498 98.1238L68.9248 39.2488L108.175 78.4988L117.987 68.6863L78.7373 29.4363Z" fill="white"/>
<path d="M147.425 58.8738L108.175 98.1238L78.7373 68.6863H59.1123L19.8623 107.936L29.6748 117.749L68.9248 78.4988L98.3623 107.936H117.987L157.237 68.6863L147.425 58.8738Z" fill="white"/>
<path d="M78.7373 49.0613L68.9248 39.2488L78.7373 29.4363L88.5498 39.2488L78.7373 49.0613Z" fill="url(#paint0_linear_361_1636)"/>
<path d="M117.987 107.936L108.175 98.1238L117.987 88.3113L127.8 98.1238L117.987 107.936Z" fill="url(#paint1_linear_361_1636)"/>
<path d="M78.7373 88.3113L68.9248 78.4988L78.7373 68.6863L88.5498 78.4988L78.7373 88.3113Z" fill="url(#paint2_linear_361_1636)"/>
<path d="M299.801 24.668H180V29.336H203.912V93.105H208.581V29.336H299.801V24.668Z" fill="white"/>
<path d="M299.801 56.552H247.306V61.22H299.801V56.552Z" fill="white"/>
<path d="M299.801 88.437H247.306V93.105H299.801V88.437Z" fill="white"/>
<path d="M501.593 88.437H449.096V93.105H501.593V88.437Z" fill="white"/>
<path d="M501.591 56.552H449.096V61.22H501.591V56.552Z" fill="white"/>
<path d="M367.064 93.105H348.788C329.92 93.105 314.569 77.754 314.569 58.886C314.569 40.018 329.92 24.667 348.788 24.667H367.064V29.335H348.788C332.493 29.335 319.238 42.591 319.238 58.885C319.238 75.18 332.494 88.435 348.788 88.435H367.064V93.105Z" fill="white"/>
<path d="M534.636 93.105C553.504 93.105 568.855 77.754 568.855 58.886C568.855 40.018 553.504 24.667 534.636 24.667H449.096V29.335H534.636C550.931 29.335 564.186 42.591 564.186 58.885C564.186 75.18 550.93 88.435 534.636 88.435H521.028V41.949H516.36V93.104H534.636V93.105Z" fill="white"/>
<path d="M434.328 97.773L386.5 34.004V93.105H381.832V20L429.66 83.769V24.668H434.328V97.773Z" fill="white"/>
<defs>
<linearGradient id="paint0_linear_361_1636" x1="83.6438" y1="44.1552" x2="73.8313" y2="34.3428" gradientUnits="userSpaceOnUse">
<stop stop-color="white" stop-opacity="0"/>
<stop offset="0.2162" stop-color="#FAFAFA" stop-opacity="0.2164"/>
<stop offset="0.3899" stop-color="#F1F1F2" stop-opacity="0.3903"/>
<stop offset="0.5489" stop-color="#E2E3E5" stop-opacity="0.5494"/>
<stop offset="0.6989" stop-color="#CFD0D2" stop-opacity="0.6996"/>
<stop offset="0.8429" stop-color="#B5B7B9" stop-opacity="0.8437"/>
<stop offset="0.9803" stop-color="#989A9C" stop-opacity="0.9813"/>
<stop offset="0.999" stop-color="#939598"/>
</linearGradient>
<linearGradient id="paint1_linear_361_1636" x1="122.894" y1="93.2177" x2="113.081" y2="103.03" gradientUnits="userSpaceOnUse">
<stop stop-color="white" stop-opacity="0"/>
<stop offset="0.2164" stop-color="#FAFAFA" stop-opacity="0.2164"/>
<stop offset="0.3903" stop-color="#F1F1F2" stop-opacity="0.3903"/>
<stop offset="0.5494" stop-color="#E2E3E5" stop-opacity="0.5494"/>
<stop offset="0.6996" stop-color="#CFD0D2" stop-opacity="0.6996"/>
<stop offset="0.8437" stop-color="#B5B7B9" stop-opacity="0.8437"/>
<stop offset="0.9813" stop-color="#989A9C" stop-opacity="0.9813"/>
<stop offset="1" stop-color="#939598"/>
</linearGradient>
<linearGradient id="paint2_linear_361_1636" x1="83.6438" y1="83.4052" x2="73.8313" y2="73.5927" gradientUnits="userSpaceOnUse">
<stop stop-color="white" stop-opacity="0"/>
<stop offset="0.2164" stop-color="#FAFAFA" stop-opacity="0.2164"/>
<stop offset="0.3903" stop-color="#F1F1F2" stop-opacity="0.3903"/>
<stop offset="0.5494" stop-color="#E2E3E5" stop-opacity="0.5494"/>
<stop offset="0.6996" stop-color="#CFD0D2" stop-opacity="0.6996"/>
<stop offset="0.8437" stop-color="#B5B7B9" stop-opacity="0.8437"/>
<stop offset="0.9813" stop-color="#989A9C" stop-opacity="0.9813"/>
<stop offset="1" stop-color="#939598"/>
</linearGradient>
</defs>
</svg>
