<svg width="405" height="94" viewBox="0 0 405 94" fill="none" xmlns="http://www.w3.org/2000/svg">
<path d="M127.801 13.0918H8V17.7598H31.912V81.5288H36.581V17.7598H127.801V13.0918Z" fill="#1E4B8A"/>
<path d="M127.802 44.9766H75.3066V49.6446H127.802V44.9766Z" fill="#1E4B8A"/>
<path d="M127.802 76.8613H75.3066V81.5293H127.802V76.8613Z" fill="#1E4B8A"/>
<path d="M329.593 76.8613H277.096V81.5293H329.593V76.8613Z" fill="#BFD730"/>
<path d="M329.591 44.9766H277.096V49.6446H329.591V44.9766Z" fill="#BFD730"/>
<path d="M195.063 81.5278H176.787C157.919 81.5278 142.568 66.1769 142.568 47.3089C142.568 28.4409 157.919 13.0898 176.787 13.0898H195.063V17.7578H176.787C160.492 17.7578 147.237 31.0138 147.237 47.3078C147.237 63.6028 160.493 76.8578 176.787 76.8578H195.063V81.5278Z" fill="#1E4B8A"/>
<path d="M362.636 81.5278C381.504 81.5278 396.855 66.1769 396.855 47.3089C396.855 28.4409 381.504 13.0898 362.636 13.0898H277.096V17.7578H362.636C378.931 17.7578 392.186 31.0138 392.186 47.3078C392.186 63.6028 378.93 76.8578 362.636 76.8578H349.028V30.3718H344.36V81.5268H362.636V81.5278Z" fill="#BFD730"/>
<path d="M262.328 86.1968L214.5 22.4278V81.5288H209.832V8.42383L257.66 72.1928V13.0918H262.328V86.1968Z" fill="#BFD730"/>
</svg>
