<svg width="405" height="94" viewBox="0 0 405 94" fill="none" xmlns="http://www.w3.org/2000/svg">
<path d="M127.801 12.668H8V17.336H31.912V81.105H36.581V17.336H127.801V12.668Z" fill="white"/>
<path d="M127.802 44.5527H75.3066V49.2207H127.802V44.5527Z" fill="white"/>
<path d="M127.802 76.4375H75.3066V81.1055H127.802V76.4375Z" fill="white"/>
<path d="M329.593 76.4375H277.096V81.1055H329.593V76.4375Z" fill="white"/>
<path d="M329.591 44.5527H277.096V49.2207H329.591V44.5527Z" fill="white"/>
<path d="M195.063 81.106H176.787C157.919 81.106 142.568 65.755 142.568 46.887C142.568 28.019 157.919 12.668 176.787 12.668H195.063V17.336H176.787C160.492 17.336 147.237 30.592 147.237 46.886C147.237 63.181 160.493 76.436 176.787 76.436H195.063V81.106Z" fill="white"/>
<path d="M362.636 81.106C381.504 81.106 396.855 65.755 396.855 46.887C396.855 28.019 381.504 12.668 362.636 12.668H277.096V17.336H362.636C378.931 17.336 392.186 30.592 392.186 46.886C392.186 63.181 378.93 76.436 362.636 76.436H349.028V29.95H344.36V81.105H362.636V81.106Z" fill="white"/>
<path d="M262.328 85.773L214.5 22.004V81.105H209.832V8L257.66 71.769V12.668H262.328V85.773Z" fill="white"/>
</svg>
