<svg width="48" height="48" viewBox="0 0 48 48" fill="none" xmlns="http://www.w3.org/2000/svg">
<g clip-path="url(#clip0_614_70)">
<path d="M23.9963 34.6621C24.2784 34.6638 24.5569 34.5984 24.8087 34.4713C25.0606 34.3441 25.2786 34.1589 25.4447 33.9309C26.9634 31.8638 29.0586 28.8476 30.7882 25.8383C32.4686 22.8924 33.7763 19.9816 33.7763 18.0481C33.78 16.7636 33.5298 15.4911 33.04 14.3037C32.5501 13.1164 31.8304 12.0375 30.9222 11.1293C30.0139 10.221 28.9351 9.50131 27.7477 9.01148C26.5603 8.52166 25.2878 8.27141 24.0034 8.27512C22.7189 8.27141 21.4464 8.52166 20.259 9.01148C19.0716 9.50131 17.9928 10.221 17.0846 11.1293C16.1763 12.0375 15.4566 13.1164 14.9668 14.3037C14.4769 15.4911 14.2267 16.7636 14.2304 18.0481C14.2234 19.9816 15.5311 22.8994 17.2115 25.8383C18.9341 28.8476 21.0363 31.8638 22.555 33.9309C22.7209 34.158 22.9376 34.3431 23.1879 34.4713C23.4382 34.5995 23.7151 34.6672 23.9963 34.6691V34.6621ZM25.4869 35.8082C24.7917 36.1634 23.9925 36.2587 23.2333 36.0769C22.474 35.8952 21.8046 35.4483 21.3457 34.8168C19.7989 32.7075 17.6615 29.642 15.9108 26.5766C14.1179 23.4408 12.7188 20.2839 12.7188 18.0481C12.7188 14.9334 13.9843 12.114 16.0233 10.075C18.0622 8.03607 20.8816 6.77051 23.9963 6.77051C27.111 6.77051 29.9304 8.03607 31.9764 10.075C34.0154 12.114 35.2809 14.9334 35.2809 18.0481C35.2809 20.2839 33.8747 23.4408 32.0819 26.5766C30.3312 29.642 28.1938 32.7075 26.647 34.8168C26.3433 35.2336 25.9459 35.5732 25.4869 35.8082ZM18.8708 17.8442C18.868 17.1694 18.9989 16.5007 19.2558 15.8767C19.5127 15.2528 19.8907 14.6859 20.3679 14.2087C20.845 13.7315 21.4119 13.3536 22.0359 13.0966C22.6599 12.8397 23.3286 12.7088 24.0034 12.7116C24.6776 12.7098 25.3455 12.8413 25.9686 13.0987C26.5918 13.356 27.1579 13.7341 27.6343 14.2112C28.1107 14.6883 28.488 15.2549 28.7445 15.8784C29.001 16.5019 29.1317 17.17 29.1289 17.8442C29.1307 18.5184 28.9992 19.1863 28.7418 19.8095C28.4845 20.4326 28.1064 20.9987 27.6293 21.4751C27.1522 21.9515 26.5856 22.3289 25.9621 22.5854C25.3386 22.8419 24.6705 22.9725 23.9963 22.9697C23.3215 22.9725 22.6529 22.8417 22.0289 22.5847C21.4049 22.3278 20.838 21.9498 20.3608 21.4726C19.8837 20.9955 19.5057 20.4286 19.2488 19.8046C18.9918 19.1806 18.861 18.512 18.8638 17.8372L18.8708 17.8442ZM21.43 15.2709C20.9188 15.7769 20.5699 16.4238 20.4278 17.1289C20.2857 17.8341 20.3569 18.5656 20.6322 19.2302C20.9075 19.8947 21.3745 20.4622 21.9737 20.8602C22.5729 21.2583 23.277 21.4689 23.9963 21.4651C24.5909 21.4632 25.1759 21.3148 25.6996 21.0332C26.2233 20.7515 26.6695 20.3452 26.9989 19.8502C27.3283 19.3552 27.5308 18.7867 27.5884 18.1949C27.646 17.6031 27.5569 17.0062 27.3291 16.4569C27.1013 15.9077 26.7417 15.423 26.2822 15.0457C25.8226 14.6684 25.2772 14.4101 24.6942 14.2935C24.1111 14.177 23.5083 14.2058 22.939 14.3775C22.3697 14.5492 21.8515 14.8584 21.43 15.2779V15.2709Z" fill="#1E4B8A"/>
<path d="M32.5534 27.2588C33.8049 27.5752 34.9439 27.9619 35.9634 28.3978C39.2258 29.804 41.2507 31.8289 41.2507 34.121C41.2507 36.4201 39.2258 38.4379 35.9634 39.8511C32.8909 41.18 28.6513 41.9956 23.9968 41.9956C19.3424 41.9956 15.1097 41.18 12.0372 39.8511C8.76787 38.445 6.75 36.4201 6.75 34.121C6.75 31.8289 8.76787 29.804 12.0372 28.3978C13.0497 27.9548 14.1957 27.5752 15.4402 27.2588C15.7003 27.7088 15.9675 28.1587 16.2417 28.6017C14.9059 28.9181 13.6895 29.3118 12.6278 29.7759C9.92094 30.943 8.24758 32.4828 8.24758 34.121C8.24758 35.7592 9.92094 37.306 12.6278 38.4731C15.5246 39.7246 19.5463 40.498 23.9968 40.498C28.4544 40.498 32.4691 39.7246 35.3728 38.4731C38.0727 37.306 39.746 35.7592 39.746 34.121C39.746 32.4828 38.0727 30.943 35.3728 29.7759C34.2044 29.2806 32.9953 28.8878 31.7589 28.6017C32.0331 28.1587 32.2933 27.7088 32.5534 27.2588Z" fill="#1E4B8A"/>
</g>
<defs>
<clipPath id="clip0_614_70">
<rect width="48" height="48" fill="white"/>
</clipPath>
</defs>
</svg>
