<svg width="40" height="40" viewBox="0 0 40 40" fill="none" xmlns="http://www.w3.org/2000/svg">
<path d="M27.5 10C27.5 5.875 24.125 2.5 20 2.5C15.875 2.5 12.5 5.875 12.5 10C12.5 14.125 15.875 17.5 20 17.5C24.125 17.5 27.5 14.125 27.5 10ZM36.625 20.125L29.125 17.625C28.875 17.5 28.625 17.5 28.375 17.625L20.875 20.125C20.375 20.25 20 20.75 20 21.25V26.75C20 32.75 23.25 34.625 27.375 37L28.125 37.375C28.375 37.5 28.5 37.5 28.75 37.5C29 37.5 29.125 37.5 29.375 37.375L30.25 36.875C31.375 36.25 32.375 35.625 33.25 35C35.5 33.5 37.5 31.375 37.5 26.75V21.25C37.5 20.75 37.125 20.25 36.625 20.125Z" fill="#1E4B8A"/>
<path d="M6.25 33.75V36.25C6.25 37 6.75 37.5 7.5 37.5H10H11.25H23.5C22.375 36.75 21.375 36 20.5 35C18.75 33.125 17.5 30.625 17.5 26.75V22.875V21.25C17.5 20.875 17.5 20.5 17.625 20.25C11.25 21.25 6.25 27 6.25 33.75Z" fill="#1E4B8A"/>
</svg>
