<svg width="40" height="40" viewBox="0 0 40 40" fill="none" xmlns="http://www.w3.org/2000/svg">
<mask id="path-1-inside-1_614_110" fill="white">
<path d="M14.4837 5.49869C14.7598 5.49869 15.0246 5.60838 15.2199 5.80363C15.4152 5.99888 15.5248 6.2637 15.5248 6.53983V14.4733C15.5248 14.7494 15.4152 15.0143 15.2199 15.2095C15.0246 15.4048 14.7598 15.5144 14.4837 15.5144H8.46592C8.18979 15.5144 7.92497 15.4048 7.72972 15.2095C7.53447 15.0143 7.42478 14.7494 7.42478 14.4733C7.42478 14.1972 7.53447 13.9324 7.72972 13.7371C7.92497 13.5419 8.18979 13.4322 8.46592 13.4322H13.4426V6.53983C13.4426 6.2637 13.5523 5.99888 13.7475 5.80363C13.9428 5.60838 14.2076 5.49869 14.4837 5.49869ZM22.5359 25.2637C22.4629 25.148 22.3678 25.0478 22.2561 24.9688C22.1444 24.8898 22.0182 24.8337 21.8848 24.8035C21.7514 24.7733 21.6133 24.7698 21.4785 24.793C21.3437 24.8162 21.2148 24.8658 21.0991 24.9388C18.9558 26.2926 16.4485 26.9555 13.9162 26.8379C11.3839 26.7202 8.94879 25.8277 6.94027 24.281C4.93174 22.7343 3.44667 20.6081 2.68591 18.1899C1.92515 15.7717 1.92541 13.1782 2.68664 10.7602C3.44786 8.34216 4.93334 6.21624 6.94217 4.66995C8.95099 3.12366 11.3862 2.23161 13.9186 2.11445C16.4509 1.99729 18.9581 2.66066 21.1011 4.01485C23.2442 5.36905 24.9196 7.34873 25.9008 9.68615C25.9507 9.81629 26.0263 9.93509 26.1229 10.0355C26.2196 10.1359 26.3355 10.2159 26.4636 10.2707C26.5918 10.3255 26.7296 10.354 26.869 10.3545C27.0084 10.3551 27.1465 10.3276 27.275 10.2738C27.4036 10.2199 27.52 10.1409 27.6175 10.0412C27.7149 9.94151 27.7913 9.82328 27.8422 9.69352C27.8931 9.56376 27.9174 9.42511 27.9137 9.28577C27.91 9.14644 27.8784 9.00927 27.8207 8.88239C26.6753 6.14683 24.717 3.82922 22.211 2.24324C19.7051 0.657258 16.7723 -0.120525 13.8097 0.015159C10.8471 0.150843 7.99778 1.19344 5.64725 3.00185C3.29672 4.81026 1.55854 7.29716 0.667946 10.126C-0.222648 12.9548 -0.222649 15.9889 0.667943 18.8177C1.55853 21.6465 3.29672 24.1334 5.64724 25.9418C7.99777 27.7502 10.8471 28.7928 13.8097 28.9285C16.7723 29.0642 19.7051 28.2864 22.211 26.7004C22.3268 26.6275 22.427 26.5324 22.5059 26.4207C22.5849 26.309 22.641 26.1828 22.6712 26.0494C22.7014 25.9159 22.7049 25.7779 22.6817 25.6431C22.6585 25.5082 22.6089 25.3793 22.5359 25.2637ZM39.9999 38.382C39.9999 38.6582 39.8903 38.923 39.695 39.1182C39.4998 39.3135 39.2349 39.4232 38.9588 39.4232H19.9788C19.7027 39.4232 19.4379 39.3135 19.2426 39.1182C19.0474 38.923 18.9377 38.6582 18.9377 38.382C18.9377 38.1059 19.0474 37.8411 19.2426 37.6458C19.4379 37.4506 19.7027 37.3409 19.9788 37.3409H20.1142C20.0014 34.459 20.8837 31.6261 22.6129 29.3179C23.4044 28.521 24.3113 27.8478 25.3032 27.321C26.4401 26.6609 26.7067 26.4506 26.7067 25.8884C26.7067 25.3261 26.4401 25.1158 25.3032 24.4558C24.3109 23.9305 23.4038 23.2579 22.6129 22.4609C20.8836 20.152 20.0013 17.3184 20.1142 14.4358H19.9788C19.7027 14.4358 19.4379 14.3261 19.2426 14.1309C19.0474 13.9356 18.9377 13.6708 18.9377 13.3947C18.9377 13.1186 19.0474 12.8537 19.2426 12.6585C19.4379 12.4632 19.7027 12.3535 19.9788 12.3535H38.9588C39.2349 12.3535 39.4998 12.4632 39.695 12.6585C39.8903 12.8537 39.9999 13.1186 39.9999 13.3947C39.9999 13.6708 39.8903 13.9356 39.695 14.1309C39.4998 14.3261 39.2349 14.4358 38.9588 14.4358H38.9255C39.0396 17.3185 38.1572 20.1525 36.4268 22.4609C35.6364 23.2576 34.7301 23.9302 33.7385 24.4558C32.5995 25.1158 32.333 25.3261 32.333 25.8884C32.333 26.4506 32.5995 26.6609 33.7385 27.321C34.7296 27.8481 35.6359 28.5212 36.4268 29.3179C38.1558 31.6262 39.0381 34.459 38.9255 37.3409H38.9588C39.0964 37.3409 39.2327 37.3682 39.3597 37.4211C39.4867 37.4741 39.6019 37.5517 39.6987 37.6495C39.7955 37.7473 39.872 37.8633 39.9237 37.9908C39.9754 38.1183 40.0013 38.2548 39.9999 38.3924V38.382ZM22.1985 37.3409H36.8411C36.9425 34.9964 36.2669 32.6841 34.9192 30.763C34.2627 30.113 33.5132 29.5642 32.6953 29.1346C31.5501 28.4704 30.2507 27.7187 30.2507 25.8988C30.2507 24.0789 31.5501 23.3272 32.6953 22.665C33.5132 22.2346 34.2627 21.6851 34.9192 21.0346C36.2693 19.1107 36.9451 16.7943 36.8411 14.4462H22.2006C22.0959 16.7944 22.7717 19.1111 24.1226 21.0346C24.7785 21.6858 25.5281 22.2353 26.3464 22.665C27.4917 23.3292 28.789 24.0809 28.789 25.8988C28.789 27.7166 27.4917 28.4704 26.3464 29.1346C25.5286 29.5642 24.7791 30.113 24.1226 30.763C22.7721 32.6868 22.0956 35.0031 22.1985 37.3513V37.3409ZM34.2549 34.1404H24.6765C24.4003 34.1404 24.1355 34.2501 23.9403 34.4454C23.745 34.6406 23.6353 34.9054 23.6353 35.1816C23.6353 35.4577 23.745 35.7225 23.9403 35.9178C24.1355 36.113 24.4003 36.2227 24.6765 36.2227H34.2549C34.5311 36.2227 34.7959 36.113 34.9911 35.9178C35.1864 35.7225 35.2961 35.4577 35.2961 35.1816C35.2961 34.9054 35.1864 34.6406 34.9911 34.4454C34.7959 34.2501 34.5311 34.1404 34.2549 34.1404Z"/>
</mask>
<path d="M14.4837 5.49869C14.7598 5.49869 15.0246 5.60838 15.2199 5.80363C15.4152 5.99888 15.5248 6.2637 15.5248 6.53983V14.4733C15.5248 14.7494 15.4152 15.0143 15.2199 15.2095C15.0246 15.4048 14.7598 15.5144 14.4837 15.5144H8.46592C8.18979 15.5144 7.92497 15.4048 7.72972 15.2095C7.53447 15.0143 7.42478 14.7494 7.42478 14.4733C7.42478 14.1972 7.53447 13.9324 7.72972 13.7371C7.92497 13.5419 8.18979 13.4322 8.46592 13.4322H13.4426V6.53983C13.4426 6.2637 13.5523 5.99888 13.7475 5.80363C13.9428 5.60838 14.2076 5.49869 14.4837 5.49869ZM22.5359 25.2637C22.4629 25.148 22.3678 25.0478 22.2561 24.9688C22.1444 24.8898 22.0182 24.8337 21.8848 24.8035C21.7514 24.7733 21.6133 24.7698 21.4785 24.793C21.3437 24.8162 21.2148 24.8658 21.0991 24.9388C18.9558 26.2926 16.4485 26.9555 13.9162 26.8379C11.3839 26.7202 8.94879 25.8277 6.94027 24.281C4.93174 22.7343 3.44667 20.6081 2.68591 18.1899C1.92515 15.7717 1.92541 13.1782 2.68664 10.7602C3.44786 8.34216 4.93334 6.21624 6.94217 4.66995C8.95099 3.12366 11.3862 2.23161 13.9186 2.11445C16.4509 1.99729 18.9581 2.66066 21.1011 4.01485C23.2442 5.36905 24.9196 7.34873 25.9008 9.68615C25.9507 9.81629 26.0263 9.93509 26.1229 10.0355C26.2196 10.1359 26.3355 10.2159 26.4636 10.2707C26.5918 10.3255 26.7296 10.354 26.869 10.3545C27.0084 10.3551 27.1465 10.3276 27.275 10.2738C27.4036 10.2199 27.52 10.1409 27.6175 10.0412C27.7149 9.94151 27.7913 9.82328 27.8422 9.69352C27.8931 9.56376 27.9174 9.42511 27.9137 9.28577C27.91 9.14644 27.8784 9.00927 27.8207 8.88239C26.6753 6.14683 24.717 3.82922 22.211 2.24324C19.7051 0.657258 16.7723 -0.120525 13.8097 0.015159C10.8471 0.150843 7.99778 1.19344 5.64725 3.00185C3.29672 4.81026 1.55854 7.29716 0.667946 10.126C-0.222648 12.9548 -0.222649 15.9889 0.667943 18.8177C1.55853 21.6465 3.29672 24.1334 5.64724 25.9418C7.99777 27.7502 10.8471 28.7928 13.8097 28.9285C16.7723 29.0642 19.7051 28.2864 22.211 26.7004C22.3268 26.6275 22.427 26.5324 22.5059 26.4207C22.5849 26.309 22.641 26.1828 22.6712 26.0494C22.7014 25.9159 22.7049 25.7779 22.6817 25.6431C22.6585 25.5082 22.6089 25.3793 22.5359 25.2637ZM39.9999 38.382C39.9999 38.6582 39.8903 38.923 39.695 39.1182C39.4998 39.3135 39.2349 39.4232 38.9588 39.4232H19.9788C19.7027 39.4232 19.4379 39.3135 19.2426 39.1182C19.0474 38.923 18.9377 38.6582 18.9377 38.382C18.9377 38.1059 19.0474 37.8411 19.2426 37.6458C19.4379 37.4506 19.7027 37.3409 19.9788 37.3409H20.1142C20.0014 34.459 20.8837 31.6261 22.6129 29.3179C23.4044 28.521 24.3113 27.8478 25.3032 27.321C26.4401 26.6609 26.7067 26.4506 26.7067 25.8884C26.7067 25.3261 26.4401 25.1158 25.3032 24.4558C24.3109 23.9305 23.4038 23.2579 22.6129 22.4609C20.8836 20.152 20.0013 17.3184 20.1142 14.4358H19.9788C19.7027 14.4358 19.4379 14.3261 19.2426 14.1309C19.0474 13.9356 18.9377 13.6708 18.9377 13.3947C18.9377 13.1186 19.0474 12.8537 19.2426 12.6585C19.4379 12.4632 19.7027 12.3535 19.9788 12.3535H38.9588C39.2349 12.3535 39.4998 12.4632 39.695 12.6585C39.8903 12.8537 39.9999 13.1186 39.9999 13.3947C39.9999 13.6708 39.8903 13.9356 39.695 14.1309C39.4998 14.3261 39.2349 14.4358 38.9588 14.4358H38.9255C39.0396 17.3185 38.1572 20.1525 36.4268 22.4609C35.6364 23.2576 34.7301 23.9302 33.7385 24.4558C32.5995 25.1158 32.333 25.3261 32.333 25.8884C32.333 26.4506 32.5995 26.6609 33.7385 27.321C34.7296 27.8481 35.6359 28.5212 36.4268 29.3179C38.1558 31.6262 39.0381 34.459 38.9255 37.3409H38.9588C39.0964 37.3409 39.2327 37.3682 39.3597 37.4211C39.4867 37.4741 39.6019 37.5517 39.6987 37.6495C39.7955 37.7473 39.872 37.8633 39.9237 37.9908C39.9754 38.1183 40.0013 38.2548 39.9999 38.3924V38.382ZM22.1985 37.3409H36.8411C36.9425 34.9964 36.2669 32.6841 34.9192 30.763C34.2627 30.113 33.5132 29.5642 32.6953 29.1346C31.5501 28.4704 30.2507 27.7187 30.2507 25.8988C30.2507 24.0789 31.5501 23.3272 32.6953 22.665C33.5132 22.2346 34.2627 21.6851 34.9192 21.0346C36.2693 19.1107 36.9451 16.7943 36.8411 14.4462H22.2006C22.0959 16.7944 22.7717 19.1111 24.1226 21.0346C24.7785 21.6858 25.5281 22.2353 26.3464 22.665C27.4917 23.3292 28.789 24.0809 28.789 25.8988C28.789 27.7166 27.4917 28.4704 26.3464 29.1346C25.5286 29.5642 24.7791 30.113 24.1226 30.763C22.7721 32.6868 22.0956 35.0031 22.1985 37.3513V37.3409ZM34.2549 34.1404H24.6765C24.4003 34.1404 24.1355 34.2501 23.9403 34.4454C23.745 34.6406 23.6353 34.9054 23.6353 35.1816C23.6353 35.4577 23.745 35.7225 23.9403 35.9178C24.1355 36.113 24.4003 36.2227 24.6765 36.2227H34.2549C34.5311 36.2227 34.7959 36.113 34.9911 35.9178C35.1864 35.7225 35.2961 35.4577 35.2961 35.1816C35.2961 34.9054 35.1864 34.6406 34.9911 34.4454C34.7959 34.2501 34.5311 34.1404 34.2549 34.1404Z" fill="#1E4B8A" stroke="white" stroke-width="0.4" mask="url(#path-1-inside-1_614_110)"/>
</svg>
